<svg class="marks" width="634" height="314" viewBox="0 0 634 314" version="1.1" xmlns="http://www.w3.org/2000/svg" xmlns:xlink="http://www.w3.org/1999/xlink"><rect width="634" height="314" style="fill: white;"></rect><g transform="translate(51,5)"><g class="mark-group role-frame root"><g transform="translate(0,0)"><path class="background" d="M0.5,0.5h575v265h-575Z" style="fill: none; stroke: #ddd;"></path><g><g class="mark-group role-axis"><g transform="translate(0.5,265.5)"><path class="background" d="M0,0h0v0h0Z" style="pointer-events: none; fill: none;"></path><g><g class="mark-rule role-axis-grid" style="pointer-events: none;"><line transform="translate(9,-265)" x2="0" y2="265" style="fill: none; stroke: #ddd; stroke-width: 1; opacity: 1;"></line><line transform="translate(74,-265)" x2="0" y2="265" style="fill: none; stroke: #ddd; stroke-width: 1; opacity: 1;"></line><line transform="translate(139,-265)" x2="0" y2="265" style="fill: none; stroke: #ddd; stroke-width: 1; opacity: 1;"></line><line transform="translate(204,-265)" x2="0" y2="265" style="fill: none; stroke: #ddd; stroke-width: 1; opacity: 1;"></line><line transform="translate(269,-265)" x2="0" y2="265" style="fill: none; stroke: #ddd; stroke-width: 1; opacity: 1;"></line><line transform="translate(334,-265)" x2="0" y2="265" style="fill: none; stroke: #ddd; stroke-width: 1; opacity: 1;"></line><line transform="translate(399,-265)" x2="0" y2="265" style="fill: none; stroke: #ddd; stroke-width: 1; opacity: 1;"></line><line transform="translate(464,-265)" x2="0" y2="265" style="fill: none; stroke: #ddd; stroke-width: 1; opacity: 1;"></line><line transform="translate(529,-265)" x2="0" y2="265" style="fill: none; stroke: #ddd; stroke-width: 1; opacity: 1;"></line></g></g><path class="foreground" d="" style="pointer-events: none; display: none; fill: none;"></path></g></g><g class="mark-group role-axis"><g transform="translate(0.5,0.5)"><path class="background" d="M0,0h0v0h0Z" style="pointer-events: none; fill: none;"></path><g><g class="mark-rule role-axis-grid" style="pointer-events: none;"><line transform="translate(0,265)" x2="575" y2="0" style="fill: none; stroke: #ddd; stroke-width: 1; opacity: 1;"></line><line transform="translate(0,224)" x2="575" y2="0" style="fill: none; stroke: #ddd; stroke-width: 1; opacity: 1;"></line><line transform="translate(0,183)" x2="575" y2="0" style="fill: none; stroke: #ddd; stroke-width: 1; opacity: 1;"></line><line transform="translate(0,143)" x2="575" y2="0" style="fill: none; stroke: #ddd; stroke-width: 1; opacity: 1;"></line><line transform="translate(0,102)" x2="575" y2="0" style="fill: none; stroke: #ddd; stroke-width: 1; opacity: 1;"></line><line transform="translate(0,61)" x2="575" y2="0" style="fill: none; stroke: #ddd; stroke-width: 1; opacity: 1;"></line><line transform="translate(0,20)" x2="575" y2="0" style="fill: none; stroke: #ddd; stroke-width: 1; opacity: 1;"></line></g></g><path class="foreground" d="" style="pointer-events: none; display: none; fill: none;"></path></g></g><g class="mark-group role-axis"><g transform="translate(0.5,265.5)"><path class="background" d="M0,0h0v0h0Z" style="pointer-events: none; fill: none;"></path><g><g class="mark-rule role-axis-tick" style="pointer-events: none;"><line transform="translate(9,0)" x2="0" y2="5" style="fill: none; stroke: #888; stroke-width: 1; opacity: 1;"></line><line transform="translate(74,0)" x2="0" y2="5" style="fill: none; stroke: #888; stroke-width: 1; opacity: 1;"></line><line transform="translate(139,0)" x2="0" y2="5" style="fill: none; stroke: #888; stroke-width: 1; opacity: 1;"></line><line transform="translate(204,0)" x2="0" y2="5" style="fill: none; stroke: #888; stroke-width: 1; opacity: 1;"></line><line transform="translate(269,0)" x2="0" y2="5" style="fill: none; stroke: #888; stroke-width: 1; opacity: 1;"></line><line transform="translate(334,0)" x2="0" y2="5" style="fill: none; stroke: #888; stroke-width: 1; opacity: 1;"></line><line transform="translate(399,0)" x2="0" y2="5" style="fill: none; stroke: #888; stroke-width: 1; opacity: 1;"></line><line transform="translate(464,0)" x2="0" y2="5" style="fill: none; stroke: #888; stroke-width: 1; opacity: 1;"></line><line transform="translate(529,0)" x2="0" y2="5" style="fill: none; stroke: #888; stroke-width: 1; opacity: 1;"></line></g><g class="mark-text role-axis-label" style="pointer-events: none;"><text text-anchor="middle" transform="translate(9.274193548387096,18)" style="font-family: sans-serif; font-size: 14px; fill: #000; opacity: 1;">15/03</text><text text-anchor="middle" transform="translate(74.19354838709677,18)" style="font-family: sans-serif; font-size: 14px; fill: #000; opacity: 1;">22/03</text><text text-anchor="middle" transform="translate(139.11290322580646,18)" style="font-family: sans-serif; font-size: 14px; fill: #000; opacity: 1;">29/03</text><text text-anchor="middle" transform="translate(204.03225806451613,18)" style="font-family: sans-serif; font-size: 14px; fill: #000; opacity: 1;">05/04</text><text text-anchor="middle" transform="translate(268.9516129032258,18)" style="font-family: sans-serif; font-size: 14px; fill: #000; opacity: 1;">12/04</text><text text-anchor="middle" transform="translate(333.8709677419355,18)" style="font-family: sans-serif; font-size: 14px; fill: #000; opacity: 1;">19/04</text><text text-anchor="middle" transform="translate(398.7903225806452,18)" style="font-family: sans-serif; font-size: 14px; fill: #000; opacity: 1;">26/04</text><text text-anchor="middle" transform="translate(463.7096774193548,18)" style="font-family: sans-serif; font-size: 14px; fill: #000; opacity: 1;">03/05</text><text text-anchor="middle" transform="translate(528.6290322580645,18)" style="font-family: sans-serif; font-size: 14px; fill: #000; opacity: 1;">10/05</text></g><g class="mark-rule role-axis-domain" style="pointer-events: none;"><line transform="translate(0,0)" x2="575" y2="0" style="fill: none; stroke: #888; stroke-width: 1; opacity: 1;"></line></g><g class="mark-text role-axis-title" style="pointer-events: none;"><text text-anchor="middle" transform="translate(287.5,36)" style="font-family: sans-serif; font-size: 14px; font-weight: bold; fill: #000; opacity: 1;">Fecha de toma de muestra</text></g></g><path class="foreground" d="" style="pointer-events: none; display: none; fill: none;"></path></g></g><g class="mark-group role-axis"><g transform="translate(0.5,0.5)"><path class="background" d="M0,0h0v0h0Z" style="pointer-events: none; fill: none;"></path><g><g class="mark-rule role-axis-tick" style="pointer-events: none;"><line transform="translate(0,265)" x2="-5" y2="0" style="fill: none; stroke: #888; stroke-width: 1; opacity: 1;"></line><line transform="translate(0,224)" x2="-5" y2="0" style="fill: none; stroke: #888; stroke-width: 1; opacity: 1;"></line><line transform="translate(0,183)" x2="-5" y2="0" style="fill: none; stroke: #888; stroke-width: 1; opacity: 1;"></line><line transform="translate(0,143)" x2="-5" y2="0" style="fill: none; stroke: #888; stroke-width: 1; opacity: 1;"></line><line transform="translate(0,102)" x2="-5" y2="0" style="fill: none; stroke: #888; stroke-width: 1; opacity: 1;"></line><line transform="translate(0,61)" x2="-5" y2="0" style="fill: none; stroke: #888; stroke-width: 1; opacity: 1;"></line><line transform="translate(0,20)" x2="-5" y2="0" style="fill: none; stroke: #888; stroke-width: 1; opacity: 1;"></line></g><g class="mark-text role-axis-label" style="pointer-events: none;"><text text-anchor="end" transform="translate(-7,269)" style="font-family: sans-serif; font-size: 14px; fill: #000; opacity: 1;">-30</text><text text-anchor="end" transform="translate(-7,228.23076923076923)" style="font-family: sans-serif; font-size: 14px; fill: #000; opacity: 1;">-20</text><text text-anchor="end" transform="translate(-7,187.46153846153845)" style="font-family: sans-serif; font-size: 14px; fill: #000; opacity: 1;">-10</text><text text-anchor="end" transform="translate(-7,146.69230769230768)" style="font-family: sans-serif; font-size: 14px; fill: #000; opacity: 1;">0</text><text text-anchor="end" transform="translate(-7,105.92307692307692)" style="font-family: sans-serif; font-size: 14px; fill: #000; opacity: 1;">10</text><text text-anchor="end" transform="translate(-7,65.15384615384613)" style="font-family: sans-serif; font-size: 14px; fill: #000; opacity: 1;">20</text><text text-anchor="end" transform="translate(-7,24.384615384615373)" style="font-family: sans-serif; font-size: 14px; fill: #000; opacity: 1;">30</text></g><g class="mark-rule role-axis-domain" style="pointer-events: none;"><line transform="translate(0,265)" x2="0" y2="-265" style="fill: none; stroke: #888; stroke-width: 1; opacity: 1;"></line></g><g class="mark-text role-axis-title" style="pointer-events: none;"><text text-anchor="middle" transform="translate(-31.234375,132.5) rotate(-90) translate(0,-3)" style="font-family: sans-serif; font-size: 14px; font-weight: bold; fill: #000; opacity: 1;">Positivos menos confirmados</text></g></g><path class="foreground" d="" style="pointer-events: none; display: none; fill: none;"></path></g></g><g class="mark-area role-mark layer_0_marks"><path d="M0,154.9230769230769L18.548387096774192,154.9230769230769L27.82258064516129,163.0769230769231L37.096774193548384,142.69230769230768L46.37096774193548,146.76923076923077L55.64516129032258,138.61538461538458L64.91935483870968,138.61538461538458L74.19354838709677,175.3076923076923L83.46774193548387,175.3076923076923L92.74193548387096,142.69230769230768L102.01612903225806,171.2307692307692L111.29032258064515,89.6923076923077L120.56451612903226,163.0769230769231L129.83870967741936,167.15384615384616L139.11290322580646,183.46153846153845L148.38709677419354,146.76923076923077L157.66129032258064,183.46153846153845L166.93548387096774,252.76923076923075L176.20967741935485,232.3846153846154L185.48387096774192,207.92307692307693L194.75806451612902,167.15384615384616L204.03225806451613,130.46153846153848L213.30645161290323,146.76923076923077L222.5806451612903,138.61538461538458L231.8548387096774,97.84615384615385L241.1290322580645,146.76923076923077L250.40322580645162,122.30769230769232L259.6774193548387,138.61538461538458L268.9516129032258,134.53846153846152L278.2258064516129,77.46153846153845L287.5,81.53846153846155L296.7741935483871,44.84615384615383L306.04838709677415,73.38461538461539L315.3225806451613,89.6923076923077L324.5967741935484,89.6923076923077L333.8709677419355,130.46153846153848L343.1451612903226,40.769230769230774L352.4193548387097,16.30769230769231L361.69354838709677,20.384615384615373L370.96774193548384,69.30769230769229L380.241935483871,73.38461538461539L389.51612903225805,118.23076923076923L408.06451612903226,36.69230769230768L417.3387096774194,40.769230769230774L426.61290322580646,32.61538461538462L435.88709677419354,48.92307692307693L445.1612903225806,61.15384615384614L454.43548387096774,97.84615384615385L463.7096774193548,142.69230769230768L472.98387096774195,93.76923076923076L482.258064516129,101.92307692307692L491.53225806451616,118.23076923076923L500.80645161290323,138.61538461538458L510.0806451612903,93.76923076923076L519.3548387096774,138.61538461538458L537.9032258064516,114.15384615384616L547.1774193548388,118.23076923076923L556.4516129032259,126.38461538461537L565.7258064516129,122.30769230769232L575,97.84615384615385L575,142.69230769230768L565.7258064516129,142.69230769230768L556.4516129032259,142.69230769230768L547.1774193548388,142.69230769230768L537.9032258064516,142.69230769230768L519.3548387096774,142.69230769230768L510.0806451612903,142.69230769230768L500.80645161290323,142.69230769230768L491.53225806451616,142.69230769230768L482.258064516129,142.69230769230768L472.98387096774195,142.69230769230768L463.7096774193548,142.69230769230768L454.43548387096774,142.69230769230768L445.1612903225806,142.69230769230768L435.88709677419354,142.69230769230768L426.61290322580646,142.69230769230768L417.3387096774194,142.69230769230768L408.06451612903226,142.69230769230768L389.51612903225805,142.69230769230768L380.241935483871,142.69230769230768L370.96774193548384,142.69230769230768L361.69354838709677,142.69230769230768L352.4193548387097,142.69230769230768L343.1451612903226,142.69230769230768L333.8709677419355,142.69230769230768L324.5967741935484,142.69230769230768L315.3225806451613,142.69230769230768L306.04838709677415,142.69230769230768L296.7741935483871,142.69230769230768L287.5,142.69230769230768L278.2258064516129,142.69230769230768L268.9516129032258,142.69230769230768L259.6774193548387,142.69230769230768L250.40322580645162,142.69230769230768L241.1290322580645,142.69230769230768L231.8548387096774,142.69230769230768L222.5806451612903,142.69230769230768L213.30645161290323,142.69230769230768L204.03225806451613,142.69230769230768L194.75806451612902,142.69230769230768L185.48387096774192,142.69230769230768L176.20967741935485,142.69230769230768L166.93548387096774,142.69230769230768L157.66129032258064,142.69230769230768L148.38709677419354,142.69230769230768L139.11290322580646,142.69230769230768L129.83870967741936,142.69230769230768L120.56451612903226,142.69230769230768L111.29032258064515,142.69230769230768L102.01612903225806,142.69230769230768L92.74193548387096,142.69230769230768L83.46774193548387,142.69230769230768L74.19354838709677,142.69230769230768L64.91935483870968,142.69230769230768L55.64516129032258,142.69230769230768L46.37096774193548,142.69230769230768L37.096774193548384,142.69230769230768L27.82258064516129,142.69230769230768L18.548387096774192,142.69230769230768L0,142.69230769230768Z" style="fill: #4c78a8; opacity: 0.7;"></path></g><g class="mark-line role-mark layer_1_marks"><path d="M0,154.9230769230769L18.548387096774192,154.9230769230769L27.82258064516129,163.0769230769231L37.096774193548384,142.69230769230768L46.37096774193548,146.76923076923077L55.64516129032258,138.61538461538458L64.91935483870968,138.61538461538458L74.19354838709677,175.3076923076923L83.46774193548387,175.3076923076923L92.74193548387096,142.69230769230768L102.01612903225806,171.2307692307692L111.29032258064515,89.6923076923077L120.56451612903226,163.0769230769231L129.83870967741936,167.15384615384616L139.11290322580646,183.46153846153845L148.38709677419354,146.76923076923077L157.66129032258064,183.46153846153845L166.93548387096774,252.76923076923075L176.20967741935485,232.3846153846154L185.48387096774192,207.92307692307693L194.75806451612902,167.15384615384616L204.03225806451613,130.46153846153848L213.30645161290323,146.76923076923077L222.5806451612903,138.61538461538458L231.8548387096774,97.84615384615385L241.1290322580645,146.76923076923077L250.40322580645162,122.30769230769232L259.6774193548387,138.61538461538458L268.9516129032258,134.53846153846152L278.2258064516129,77.46153846153845L287.5,81.53846153846155L296.7741935483871,44.84615384615383L306.04838709677415,73.38461538461539L315.3225806451613,89.6923076923077L324.5967741935484,89.6923076923077L333.8709677419355,130.46153846153848L343.1451612903226,40.769230769230774L352.4193548387097,16.30769230769231L361.69354838709677,20.384615384615373L370.96774193548384,69.30769230769229L380.241935483871,73.38461538461539L389.51612903225805,118.23076923076923L408.06451612903226,36.69230769230768L417.3387096774194,40.769230769230774L426.61290322580646,32.61538461538462L435.88709677419354,48.92307692307693L445.1612903225806,61.15384615384614L454.43548387096774,97.84615384615385L463.7096774193548,142.69230769230768L472.98387096774195,93.76923076923076L482.258064516129,101.92307692307692L491.53225806451616,118.23076923076923L500.80645161290323,138.61538461538458L510.0806451612903,93.76923076923076L519.3548387096774,138.61538461538458L537.9032258064516,114.15384615384616L547.1774193548388,118.23076923076923L556.4516129032259,126.38461538461537L565.7258064516129,122.30769230769232L575,97.84615384615385" style="fill: none; stroke: #4c78a8; stroke-width: 2;"></path></g><g class="mark-symbol role-mark layer_2_marks"><path transform="translate(0,154.9230769230769)" d="M2.7386127875258306,0A2.7386127875258306,2.7386127875258306,0,1,1,-2.7386127875258306,0A2.7386127875258306,2.7386127875258306,0,1,1,2.7386127875258306,0" style="fill: #4c78a8; stroke-width: 2; opacity: 1;"></path><path transform="translate(18.548387096774192,154.9230769230769)" d="M2.7386127875258306,0A2.7386127875258306,2.7386127875258306,0,1,1,-2.7386127875258306,0A2.7386127875258306,2.7386127875258306,0,1,1,2.7386127875258306,0" style="fill: #4c78a8; stroke-width: 2; opacity: 1;"></path><path transform="translate(27.82258064516129,163.0769230769231)" d="M2.7386127875258306,0A2.7386127875258306,2.7386127875258306,0,1,1,-2.7386127875258306,0A2.7386127875258306,2.7386127875258306,0,1,1,2.7386127875258306,0" style="fill: #4c78a8; stroke-width: 2; opacity: 1;"></path><path transform="translate(37.096774193548384,142.69230769230768)" d="M2.7386127875258306,0A2.7386127875258306,2.7386127875258306,0,1,1,-2.7386127875258306,0A2.7386127875258306,2.7386127875258306,0,1,1,2.7386127875258306,0" style="fill: #4c78a8; stroke-width: 2; opacity: 1;"></path><path transform="translate(46.37096774193548,146.76923076923077)" d="M2.7386127875258306,0A2.7386127875258306,2.7386127875258306,0,1,1,-2.7386127875258306,0A2.7386127875258306,2.7386127875258306,0,1,1,2.7386127875258306,0" style="fill: #4c78a8; stroke-width: 2; opacity: 1;"></path><path transform="translate(55.64516129032258,138.61538461538458)" d="M2.7386127875258306,0A2.7386127875258306,2.7386127875258306,0,1,1,-2.7386127875258306,0A2.7386127875258306,2.7386127875258306,0,1,1,2.7386127875258306,0" style="fill: #4c78a8; stroke-width: 2; opacity: 1;"></path><path transform="translate(64.91935483870968,138.61538461538458)" d="M2.7386127875258306,0A2.7386127875258306,2.7386127875258306,0,1,1,-2.7386127875258306,0A2.7386127875258306,2.7386127875258306,0,1,1,2.7386127875258306,0" style="fill: #4c78a8; stroke-width: 2; opacity: 1;"></path><path transform="translate(74.19354838709677,175.3076923076923)" d="M2.7386127875258306,0A2.7386127875258306,2.7386127875258306,0,1,1,-2.7386127875258306,0A2.7386127875258306,2.7386127875258306,0,1,1,2.7386127875258306,0" style="fill: #4c78a8; stroke-width: 2; opacity: 1;"></path><path transform="translate(83.46774193548387,175.3076923076923)" d="M2.7386127875258306,0A2.7386127875258306,2.7386127875258306,0,1,1,-2.7386127875258306,0A2.7386127875258306,2.7386127875258306,0,1,1,2.7386127875258306,0" style="fill: #4c78a8; stroke-width: 2; opacity: 1;"></path><path transform="translate(92.74193548387096,142.69230769230768)" d="M2.7386127875258306,0A2.7386127875258306,2.7386127875258306,0,1,1,-2.7386127875258306,0A2.7386127875258306,2.7386127875258306,0,1,1,2.7386127875258306,0" style="fill: #4c78a8; stroke-width: 2; opacity: 1;"></path><path transform="translate(102.01612903225806,171.2307692307692)" d="M2.7386127875258306,0A2.7386127875258306,2.7386127875258306,0,1,1,-2.7386127875258306,0A2.7386127875258306,2.7386127875258306,0,1,1,2.7386127875258306,0" style="fill: #4c78a8; stroke-width: 2; opacity: 1;"></path><path transform="translate(111.29032258064515,89.6923076923077)" d="M2.7386127875258306,0A2.7386127875258306,2.7386127875258306,0,1,1,-2.7386127875258306,0A2.7386127875258306,2.7386127875258306,0,1,1,2.7386127875258306,0" style="fill: #4c78a8; stroke-width: 2; opacity: 1;"></path><path transform="translate(120.56451612903226,163.0769230769231)" d="M2.7386127875258306,0A2.7386127875258306,2.7386127875258306,0,1,1,-2.7386127875258306,0A2.7386127875258306,2.7386127875258306,0,1,1,2.7386127875258306,0" style="fill: #4c78a8; stroke-width: 2; opacity: 1;"></path><path transform="translate(129.83870967741936,167.15384615384616)" d="M2.7386127875258306,0A2.7386127875258306,2.7386127875258306,0,1,1,-2.7386127875258306,0A2.7386127875258306,2.7386127875258306,0,1,1,2.7386127875258306,0" style="fill: #4c78a8; stroke-width: 2; opacity: 1;"></path><path transform="translate(139.11290322580646,183.46153846153845)" d="M2.7386127875258306,0A2.7386127875258306,2.7386127875258306,0,1,1,-2.7386127875258306,0A2.7386127875258306,2.7386127875258306,0,1,1,2.7386127875258306,0" style="fill: #4c78a8; stroke-width: 2; opacity: 1;"></path><path transform="translate(148.38709677419354,146.76923076923077)" d="M2.7386127875258306,0A2.7386127875258306,2.7386127875258306,0,1,1,-2.7386127875258306,0A2.7386127875258306,2.7386127875258306,0,1,1,2.7386127875258306,0" style="fill: #4c78a8; stroke-width: 2; opacity: 1;"></path><path transform="translate(157.66129032258064,183.46153846153845)" d="M2.7386127875258306,0A2.7386127875258306,2.7386127875258306,0,1,1,-2.7386127875258306,0A2.7386127875258306,2.7386127875258306,0,1,1,2.7386127875258306,0" style="fill: #4c78a8; stroke-width: 2; opacity: 1;"></path><path transform="translate(166.93548387096774,252.76923076923075)" d="M2.7386127875258306,0A2.7386127875258306,2.7386127875258306,0,1,1,-2.7386127875258306,0A2.7386127875258306,2.7386127875258306,0,1,1,2.7386127875258306,0" style="fill: #4c78a8; stroke-width: 2; opacity: 1;"></path><path transform="translate(176.20967741935485,232.3846153846154)" d="M2.7386127875258306,0A2.7386127875258306,2.7386127875258306,0,1,1,-2.7386127875258306,0A2.7386127875258306,2.7386127875258306,0,1,1,2.7386127875258306,0" style="fill: #4c78a8; stroke-width: 2; opacity: 1;"></path><path transform="translate(185.48387096774192,207.92307692307693)" d="M2.7386127875258306,0A2.7386127875258306,2.7386127875258306,0,1,1,-2.7386127875258306,0A2.7386127875258306,2.7386127875258306,0,1,1,2.7386127875258306,0" style="fill: #4c78a8; stroke-width: 2; opacity: 1;"></path><path transform="translate(194.75806451612902,167.15384615384616)" d="M2.7386127875258306,0A2.7386127875258306,2.7386127875258306,0,1,1,-2.7386127875258306,0A2.7386127875258306,2.7386127875258306,0,1,1,2.7386127875258306,0" style="fill: #4c78a8; stroke-width: 2; opacity: 1;"></path><path transform="translate(204.03225806451613,130.46153846153848)" d="M2.7386127875258306,0A2.7386127875258306,2.7386127875258306,0,1,1,-2.7386127875258306,0A2.7386127875258306,2.7386127875258306,0,1,1,2.7386127875258306,0" style="fill: #4c78a8; stroke-width: 2; opacity: 1;"></path><path transform="translate(213.30645161290323,146.76923076923077)" d="M2.7386127875258306,0A2.7386127875258306,2.7386127875258306,0,1,1,-2.7386127875258306,0A2.7386127875258306,2.7386127875258306,0,1,1,2.7386127875258306,0" style="fill: #4c78a8; stroke-width: 2; opacity: 1;"></path><path transform="translate(222.5806451612903,138.61538461538458)" d="M2.7386127875258306,0A2.7386127875258306,2.7386127875258306,0,1,1,-2.7386127875258306,0A2.7386127875258306,2.7386127875258306,0,1,1,2.7386127875258306,0" style="fill: #4c78a8; stroke-width: 2; opacity: 1;"></path><path transform="translate(231.8548387096774,97.84615384615385)" d="M2.7386127875258306,0A2.7386127875258306,2.7386127875258306,0,1,1,-2.7386127875258306,0A2.7386127875258306,2.7386127875258306,0,1,1,2.7386127875258306,0" style="fill: #4c78a8; stroke-width: 2; opacity: 1;"></path><path transform="translate(241.1290322580645,146.76923076923077)" d="M2.7386127875258306,0A2.7386127875258306,2.7386127875258306,0,1,1,-2.7386127875258306,0A2.7386127875258306,2.7386127875258306,0,1,1,2.7386127875258306,0" style="fill: #4c78a8; stroke-width: 2; opacity: 1;"></path><path transform="translate(250.40322580645162,122.30769230769232)" d="M2.7386127875258306,0A2.7386127875258306,2.7386127875258306,0,1,1,-2.7386127875258306,0A2.7386127875258306,2.7386127875258306,0,1,1,2.7386127875258306,0" style="fill: #4c78a8; stroke-width: 2; opacity: 1;"></path><path transform="translate(259.6774193548387,138.61538461538458)" d="M2.7386127875258306,0A2.7386127875258306,2.7386127875258306,0,1,1,-2.7386127875258306,0A2.7386127875258306,2.7386127875258306,0,1,1,2.7386127875258306,0" style="fill: #4c78a8; stroke-width: 2; opacity: 1;"></path><path transform="translate(268.9516129032258,134.53846153846152)" d="M2.7386127875258306,0A2.7386127875258306,2.7386127875258306,0,1,1,-2.7386127875258306,0A2.7386127875258306,2.7386127875258306,0,1,1,2.7386127875258306,0" style="fill: #4c78a8; stroke-width: 2; opacity: 1;"></path><path transform="translate(278.2258064516129,77.46153846153845)" d="M2.7386127875258306,0A2.7386127875258306,2.7386127875258306,0,1,1,-2.7386127875258306,0A2.7386127875258306,2.7386127875258306,0,1,1,2.7386127875258306,0" style="fill: #4c78a8; stroke-width: 2; opacity: 1;"></path><path transform="translate(287.5,81.53846153846155)" d="M2.7386127875258306,0A2.7386127875258306,2.7386127875258306,0,1,1,-2.7386127875258306,0A2.7386127875258306,2.7386127875258306,0,1,1,2.7386127875258306,0" style="fill: #4c78a8; stroke-width: 2; opacity: 1;"></path><path transform="translate(296.7741935483871,44.84615384615383)" d="M2.7386127875258306,0A2.7386127875258306,2.7386127875258306,0,1,1,-2.7386127875258306,0A2.7386127875258306,2.7386127875258306,0,1,1,2.7386127875258306,0" style="fill: #4c78a8; stroke-width: 2; opacity: 1;"></path><path transform="translate(306.04838709677415,73.38461538461539)" d="M2.7386127875258306,0A2.7386127875258306,2.7386127875258306,0,1,1,-2.7386127875258306,0A2.7386127875258306,2.7386127875258306,0,1,1,2.7386127875258306,0" style="fill: #4c78a8; stroke-width: 2; opacity: 1;"></path><path transform="translate(315.3225806451613,89.6923076923077)" d="M2.7386127875258306,0A2.7386127875258306,2.7386127875258306,0,1,1,-2.7386127875258306,0A2.7386127875258306,2.7386127875258306,0,1,1,2.7386127875258306,0" style="fill: #4c78a8; stroke-width: 2; opacity: 1;"></path><path transform="translate(324.5967741935484,89.6923076923077)" d="M2.7386127875258306,0A2.7386127875258306,2.7386127875258306,0,1,1,-2.7386127875258306,0A2.7386127875258306,2.7386127875258306,0,1,1,2.7386127875258306,0" style="fill: #4c78a8; stroke-width: 2; opacity: 1;"></path><path transform="translate(333.8709677419355,130.46153846153848)" d="M2.7386127875258306,0A2.7386127875258306,2.7386127875258306,0,1,1,-2.7386127875258306,0A2.7386127875258306,2.7386127875258306,0,1,1,2.7386127875258306,0" style="fill: #4c78a8; stroke-width: 2; opacity: 1;"></path><path transform="translate(343.1451612903226,40.769230769230774)" d="M2.7386127875258306,0A2.7386127875258306,2.7386127875258306,0,1,1,-2.7386127875258306,0A2.7386127875258306,2.7386127875258306,0,1,1,2.7386127875258306,0" style="fill: #4c78a8; stroke-width: 2; opacity: 1;"></path><path transform="translate(352.4193548387097,16.30769230769231)" d="M2.7386127875258306,0A2.7386127875258306,2.7386127875258306,0,1,1,-2.7386127875258306,0A2.7386127875258306,2.7386127875258306,0,1,1,2.7386127875258306,0" style="fill: #4c78a8; stroke-width: 2; opacity: 1;"></path><path transform="translate(361.69354838709677,20.384615384615373)" d="M2.7386127875258306,0A2.7386127875258306,2.7386127875258306,0,1,1,-2.7386127875258306,0A2.7386127875258306,2.7386127875258306,0,1,1,2.7386127875258306,0" style="fill: #4c78a8; stroke-width: 2; opacity: 1;"></path><path transform="translate(370.96774193548384,69.30769230769229)" d="M2.7386127875258306,0A2.7386127875258306,2.7386127875258306,0,1,1,-2.7386127875258306,0A2.7386127875258306,2.7386127875258306,0,1,1,2.7386127875258306,0" style="fill: #4c78a8; stroke-width: 2; opacity: 1;"></path><path transform="translate(380.241935483871,73.38461538461539)" d="M2.7386127875258306,0A2.7386127875258306,2.7386127875258306,0,1,1,-2.7386127875258306,0A2.7386127875258306,2.7386127875258306,0,1,1,2.7386127875258306,0" style="fill: #4c78a8; stroke-width: 2; opacity: 1;"></path><path transform="translate(389.51612903225805,118.23076923076923)" d="M2.7386127875258306,0A2.7386127875258306,2.7386127875258306,0,1,1,-2.7386127875258306,0A2.7386127875258306,2.7386127875258306,0,1,1,2.7386127875258306,0" style="fill: #4c78a8; stroke-width: 2; opacity: 1;"></path><path transform="translate(408.06451612903226,36.69230769230768)" d="M2.7386127875258306,0A2.7386127875258306,2.7386127875258306,0,1,1,-2.7386127875258306,0A2.7386127875258306,2.7386127875258306,0,1,1,2.7386127875258306,0" style="fill: #4c78a8; stroke-width: 2; opacity: 1;"></path><path transform="translate(417.3387096774194,40.769230769230774)" d="M2.7386127875258306,0A2.7386127875258306,2.7386127875258306,0,1,1,-2.7386127875258306,0A2.7386127875258306,2.7386127875258306,0,1,1,2.7386127875258306,0" style="fill: #4c78a8; stroke-width: 2; opacity: 1;"></path><path transform="translate(426.61290322580646,32.61538461538462)" d="M2.7386127875258306,0A2.7386127875258306,2.7386127875258306,0,1,1,-2.7386127875258306,0A2.7386127875258306,2.7386127875258306,0,1,1,2.7386127875258306,0" style="fill: #4c78a8; stroke-width: 2; opacity: 1;"></path><path transform="translate(435.88709677419354,48.92307692307693)" d="M2.7386127875258306,0A2.7386127875258306,2.7386127875258306,0,1,1,-2.7386127875258306,0A2.7386127875258306,2.7386127875258306,0,1,1,2.7386127875258306,0" style="fill: #4c78a8; stroke-width: 2; opacity: 1;"></path><path transform="translate(445.1612903225806,61.15384615384614)" d="M2.7386127875258306,0A2.7386127875258306,2.7386127875258306,0,1,1,-2.7386127875258306,0A2.7386127875258306,2.7386127875258306,0,1,1,2.7386127875258306,0" style="fill: #4c78a8; stroke-width: 2; opacity: 1;"></path><path transform="translate(454.43548387096774,97.84615384615385)" d="M2.7386127875258306,0A2.7386127875258306,2.7386127875258306,0,1,1,-2.7386127875258306,0A2.7386127875258306,2.7386127875258306,0,1,1,2.7386127875258306,0" style="fill: #4c78a8; stroke-width: 2; opacity: 1;"></path><path transform="translate(463.7096774193548,142.69230769230768)" d="M2.7386127875258306,0A2.7386127875258306,2.7386127875258306,0,1,1,-2.7386127875258306,0A2.7386127875258306,2.7386127875258306,0,1,1,2.7386127875258306,0" style="fill: #4c78a8; stroke-width: 2; opacity: 1;"></path><path transform="translate(472.98387096774195,93.76923076923076)" d="M2.7386127875258306,0A2.7386127875258306,2.7386127875258306,0,1,1,-2.7386127875258306,0A2.7386127875258306,2.7386127875258306,0,1,1,2.7386127875258306,0" style="fill: #4c78a8; stroke-width: 2; opacity: 1;"></path><path transform="translate(482.258064516129,101.92307692307692)" d="M2.7386127875258306,0A2.7386127875258306,2.7386127875258306,0,1,1,-2.7386127875258306,0A2.7386127875258306,2.7386127875258306,0,1,1,2.7386127875258306,0" style="fill: #4c78a8; stroke-width: 2; opacity: 1;"></path><path transform="translate(491.53225806451616,118.23076923076923)" d="M2.7386127875258306,0A2.7386127875258306,2.7386127875258306,0,1,1,-2.7386127875258306,0A2.7386127875258306,2.7386127875258306,0,1,1,2.7386127875258306,0" style="fill: #4c78a8; stroke-width: 2; opacity: 1;"></path><path transform="translate(500.80645161290323,138.61538461538458)" d="M2.7386127875258306,0A2.7386127875258306,2.7386127875258306,0,1,1,-2.7386127875258306,0A2.7386127875258306,2.7386127875258306,0,1,1,2.7386127875258306,0" style="fill: #4c78a8; stroke-width: 2; opacity: 1;"></path><path transform="translate(510.0806451612903,93.76923076923076)" d="M2.7386127875258306,0A2.7386127875258306,2.7386127875258306,0,1,1,-2.7386127875258306,0A2.7386127875258306,2.7386127875258306,0,1,1,2.7386127875258306,0" style="fill: #4c78a8; stroke-width: 2; opacity: 1;"></path><path transform="translate(519.3548387096774,138.61538461538458)" d="M2.7386127875258306,0A2.7386127875258306,2.7386127875258306,0,1,1,-2.7386127875258306,0A2.7386127875258306,2.7386127875258306,0,1,1,2.7386127875258306,0" style="fill: #4c78a8; stroke-width: 2; opacity: 1;"></path><path transform="translate(537.9032258064516,114.15384615384616)" d="M2.7386127875258306,0A2.7386127875258306,2.7386127875258306,0,1,1,-2.7386127875258306,0A2.7386127875258306,2.7386127875258306,0,1,1,2.7386127875258306,0" style="fill: #4c78a8; stroke-width: 2; opacity: 1;"></path><path transform="translate(547.1774193548388,118.23076923076923)" d="M2.7386127875258306,0A2.7386127875258306,2.7386127875258306,0,1,1,-2.7386127875258306,0A2.7386127875258306,2.7386127875258306,0,1,1,2.7386127875258306,0" style="fill: #4c78a8; stroke-width: 2; opacity: 1;"></path><path transform="translate(556.4516129032259,126.38461538461537)" d="M2.7386127875258306,0A2.7386127875258306,2.7386127875258306,0,1,1,-2.7386127875258306,0A2.7386127875258306,2.7386127875258306,0,1,1,2.7386127875258306,0" style="fill: #4c78a8; stroke-width: 2; opacity: 1;"></path><path transform="translate(565.7258064516129,122.30769230769232)" d="M2.7386127875258306,0A2.7386127875258306,2.7386127875258306,0,1,1,-2.7386127875258306,0A2.7386127875258306,2.7386127875258306,0,1,1,2.7386127875258306,0" style="fill: #4c78a8; stroke-width: 2; opacity: 1;"></path><path transform="translate(575,97.84615384615385)" d="M2.7386127875258306,0A2.7386127875258306,2.7386127875258306,0,1,1,-2.7386127875258306,0A2.7386127875258306,2.7386127875258306,0,1,1,2.7386127875258306,0" style="fill: #4c78a8; stroke-width: 2; opacity: 1;"></path></g></g><path class="foreground" d="" style="display: none; fill: none;"></path></g></g></g></svg>