<svg class="marks" width="642" height="314" viewBox="0 0 642 314" version="1.1" xmlns="http://www.w3.org/2000/svg" xmlns:xlink="http://www.w3.org/1999/xlink"><rect width="642" height="314" style="fill: white;"></rect><g transform="translate(59,5)"><g class="mark-group role-frame root"><g transform="translate(0,0)"><path class="background" d="M0.5,0.5h575v265h-575Z" style="fill: none; stroke: #ddd;"></path><g><g class="mark-group role-axis"><g transform="translate(0.5,265.5)"><path class="background" d="M0,0h0v0h0Z" style="pointer-events: none; fill: none;"></path><g><g class="mark-rule role-axis-grid" style="pointer-events: none;"><line transform="translate(9,-265)" x2="0" y2="265" style="fill: none; stroke: #ddd; stroke-width: 1; opacity: 1;"></line><line transform="translate(70,-265)" x2="0" y2="265" style="fill: none; stroke: #ddd; stroke-width: 1; opacity: 1;"></line><line transform="translate(131,-265)" x2="0" y2="265" style="fill: none; stroke: #ddd; stroke-width: 1; opacity: 1;"></line><line transform="translate(192,-265)" x2="0" y2="265" style="fill: none; stroke: #ddd; stroke-width: 1; opacity: 1;"></line><line transform="translate(253,-265)" x2="0" y2="265" style="fill: none; stroke: #ddd; stroke-width: 1; opacity: 1;"></line><line transform="translate(314,-265)" x2="0" y2="265" style="fill: none; stroke: #ddd; stroke-width: 1; opacity: 1;"></line><line transform="translate(375,-265)" x2="0" y2="265" style="fill: none; stroke: #ddd; stroke-width: 1; opacity: 1;"></line><line transform="translate(436,-265)" x2="0" y2="265" style="fill: none; stroke: #ddd; stroke-width: 1; opacity: 1;"></line><line transform="translate(497,-265)" x2="0" y2="265" style="fill: none; stroke: #ddd; stroke-width: 1; opacity: 1;"></line><line transform="translate(558,-265)" x2="0" y2="265" style="fill: none; stroke: #ddd; stroke-width: 1; opacity: 1;"></line></g></g><path class="foreground" d="" style="pointer-events: none; display: none; fill: none;"></path></g></g><g class="mark-group role-axis"><g transform="translate(0.5,0.5)"><path class="background" d="M0,0h0v0h0Z" style="pointer-events: none; fill: none;"></path><g><g class="mark-rule role-axis-grid" style="pointer-events: none;"><line transform="translate(0,239)" x2="575" y2="0" style="fill: none; stroke: #ddd; stroke-width: 1; opacity: 1;"></line><line transform="translate(0,186)" x2="575" y2="0" style="fill: none; stroke: #ddd; stroke-width: 1; opacity: 1;"></line><line transform="translate(0,133)" x2="575" y2="0" style="fill: none; stroke: #ddd; stroke-width: 1; opacity: 1;"></line><line transform="translate(0,80)" x2="575" y2="0" style="fill: none; stroke: #ddd; stroke-width: 1; opacity: 1;"></line><line transform="translate(0,26)" x2="575" y2="0" style="fill: none; stroke: #ddd; stroke-width: 1; opacity: 1;"></line></g></g><path class="foreground" d="" style="pointer-events: none; display: none; fill: none;"></path></g></g><g class="mark-group role-axis"><g transform="translate(0.5,265.5)"><path class="background" d="M0,0h0v0h0Z" style="pointer-events: none; fill: none;"></path><g><g class="mark-rule role-axis-tick" style="pointer-events: none;"><line transform="translate(9,0)" x2="0" y2="5" style="fill: none; stroke: #888; stroke-width: 1; opacity: 1;"></line><line transform="translate(70,0)" x2="0" y2="5" style="fill: none; stroke: #888; stroke-width: 1; opacity: 1;"></line><line transform="translate(131,0)" x2="0" y2="5" style="fill: none; stroke: #888; stroke-width: 1; opacity: 1;"></line><line transform="translate(192,0)" x2="0" y2="5" style="fill: none; stroke: #888; stroke-width: 1; opacity: 1;"></line><line transform="translate(253,0)" x2="0" y2="5" style="fill: none; stroke: #888; stroke-width: 1; opacity: 1;"></line><line transform="translate(314,0)" x2="0" y2="5" style="fill: none; stroke: #888; stroke-width: 1; opacity: 1;"></line><line transform="translate(375,0)" x2="0" y2="5" style="fill: none; stroke: #888; stroke-width: 1; opacity: 1;"></line><line transform="translate(436,0)" x2="0" y2="5" style="fill: none; stroke: #888; stroke-width: 1; opacity: 1;"></line><line transform="translate(497,0)" x2="0" y2="5" style="fill: none; stroke: #888; stroke-width: 1; opacity: 1;"></line><line transform="translate(558,0)" x2="0" y2="5" style="fill: none; stroke: #888; stroke-width: 1; opacity: 1;"></line></g><g class="mark-text role-axis-label" style="pointer-events: none;"><text text-anchor="middle" transform="translate(8.712121212121213,18)" style="font-family: sans-serif; font-size: 14px; fill: #000; opacity: 1;">15/03</text><text text-anchor="middle" transform="translate(69.6969696969697,18)" style="font-family: sans-serif; font-size: 14px; fill: #000; opacity: 1;">22/03</text><text text-anchor="middle" transform="translate(130.6818181818182,18)" style="font-family: sans-serif; font-size: 14px; fill: #000; opacity: 1;">29/03</text><text text-anchor="middle" transform="translate(191.66666666666666,18)" style="font-family: sans-serif; font-size: 14px; fill: #000; opacity: 1;">05/04</text><text text-anchor="middle" transform="translate(252.65151515151516,18)" style="font-family: sans-serif; font-size: 14px; fill: #000; opacity: 1;">12/04</text><text text-anchor="middle" transform="translate(313.6363636363636,18)" style="font-family: sans-serif; font-size: 14px; fill: #000; opacity: 1;">19/04</text><text text-anchor="middle" transform="translate(374.6212121212121,18)" style="font-family: sans-serif; font-size: 14px; fill: #000; opacity: 1;">26/04</text><text text-anchor="middle" transform="translate(435.6060606060606,18)" style="font-family: sans-serif; font-size: 14px; fill: #000; opacity: 1;">03/05</text><text text-anchor="middle" transform="translate(496.5909090909091,18)" style="font-family: sans-serif; font-size: 14px; fill: #000; opacity: 1;">10/05</text><text text-anchor="middle" transform="translate(557.5757575757576,18)" style="font-family: sans-serif; font-size: 14px; fill: #000; opacity: 1;">17/05</text></g><g class="mark-rule role-axis-domain" style="pointer-events: none;"><line transform="translate(0,0)" x2="575" y2="0" style="fill: none; stroke: #888; stroke-width: 1; opacity: 1;"></line></g><g class="mark-text role-axis-title" style="pointer-events: none;"><text text-anchor="middle" transform="translate(287.5,36)" style="font-family: sans-serif; font-size: 14px; font-weight: bold; fill: #000; opacity: 1;">Fecha de toma de muestra</text></g></g><path class="foreground" d="" style="pointer-events: none; display: none; fill: none;"></path></g></g><g class="mark-group role-axis"><g transform="translate(0.5,0.5)"><path class="background" d="M0,0h0v0h0Z" style="pointer-events: none; fill: none;"></path><g><g class="mark-rule role-axis-tick" style="pointer-events: none;"><line transform="translate(0,239)" x2="-5" y2="0" style="fill: none; stroke: #888; stroke-width: 1; opacity: 1;"></line><line transform="translate(0,186)" x2="-5" y2="0" style="fill: none; stroke: #888; stroke-width: 1; opacity: 1;"></line><line transform="translate(0,133)" x2="-5" y2="0" style="fill: none; stroke: #888; stroke-width: 1; opacity: 1;"></line><line transform="translate(0,80)" x2="-5" y2="0" style="fill: none; stroke: #888; stroke-width: 1; opacity: 1;"></line><line transform="translate(0,26)" x2="-5" y2="0" style="fill: none; stroke: #888; stroke-width: 1; opacity: 1;"></line></g><g class="mark-text role-axis-label" style="pointer-events: none;"><text text-anchor="end" transform="translate(-7,242.5)" style="font-family: sans-serif; font-size: 14px; fill: #000; opacity: 1;">-100</text><text text-anchor="end" transform="translate(-7,189.5)" style="font-family: sans-serif; font-size: 14px; fill: #000; opacity: 1;">0</text><text text-anchor="end" transform="translate(-7,136.5)" style="font-family: sans-serif; font-size: 14px; fill: #000; opacity: 1;">100</text><text text-anchor="end" transform="translate(-7,83.50000000000001)" style="font-family: sans-serif; font-size: 14px; fill: #000; opacity: 1;">200</text><text text-anchor="end" transform="translate(-7,30.499999999999993)" style="font-family: sans-serif; font-size: 14px; fill: #000; opacity: 1;">300</text></g><g class="mark-rule role-axis-domain" style="pointer-events: none;"><line transform="translate(0,265)" x2="0" y2="-265" style="fill: none; stroke: #888; stroke-width: 1; opacity: 1;"></line></g><g class="mark-text role-axis-title" style="pointer-events: none;"><text text-anchor="middle" transform="translate(-39.0205078125,132.5) rotate(-90) translate(0,-3)" style="font-family: sans-serif; font-size: 14px; font-weight: bold; fill: #000; opacity: 1;">Positivos menos confirmados</text></g></g><path class="foreground" d="" style="pointer-events: none; display: none; fill: none;"></path></g></g><g class="mark-area role-mark layer_0_marks"><path d="M0,189.20999999999998L8.712121212121213,189.20999999999998L17.424242424242426,191.32999999999998L26.136363636363637,193.98L34.84848484848485,193.98L43.56060606060606,194.51L52.27272727272727,193.98L60.984848484848484,193.45L69.6969696969697,197.69L78.4090909090909,202.46L87.12121212121212,202.46L95.83333333333333,206.17000000000002L104.54545454545455,198.75L113.25757575757575,200.87L121.96969696969697,204.05L130.6818181818182,209.35000000000002L139.3939393939394,209.88000000000002L148.1060606060606,215.18L156.8181818181818,230.02L165.53030303030303,241.68L174.24242424242425,250.16L182.95454545454544,253.34L191.66666666666666,251.75L200.3787878787879,252.81L209.0909090909091,252.28L217.8030303030303,246.45L226.5151515151515,246.98L235.22727272727275,244.33L243.93939393939394,243.8L252.65151515151516,242.74L261.3636363636364,234.26L270.07575757575756,226.31L278.7878787878788,213.59L287.5,204.58L296.2121212121212,197.69L304.92424242424244,190.79999999999998L313.6363636363636,189.20999999999998L322.3484848484848,175.95999999999998L331.06060606060606,159.53L339.7727272727273,143.63000000000002L348.4848484848485,134.09L357.1969696969697,125.08L365.9090909090909,121.89999999999999L374.6212121212121,121.36999999999999L383.3333333333333,107.59L392.0454545454545,94.33999999999999L400.7575757575758,80.03000000000002L409.469696969697,67.84L418.1818181818182,57.239999999999995L426.8939393939394,51.40999999999999L435.6060606060606,51.40999999999999L444.3181818181818,44.52000000000001L453.030303030303,39.220000000000006L461.7424242424242,36.04L470.4545454545455,35.510000000000005L479.1666666666667,29.149999999999995L487.8787878787879,28.619999999999997L496.5909090909091,28.089999999999996L505.3030303030303,25.439999999999994L514.0151515151515,22.789999999999992L522.7272727272727,20.669999999999987L531.4393939393939,18.019999999999985L540.1515151515151,13.780000000000012L548.8636363636364,12.720000000000011L557.5757575757576,11.66000000000001L566.2878787878788,11.66000000000001L575,10.07000000000001L575,185.5L566.2878787878788,185.5L557.5757575757576,185.5L548.8636363636364,185.5L540.1515151515151,185.5L531.4393939393939,185.5L522.7272727272727,185.5L514.0151515151515,185.5L505.3030303030303,185.5L496.5909090909091,185.5L487.8787878787879,185.5L479.1666666666667,185.5L470.4545454545455,185.5L461.7424242424242,185.5L453.030303030303,185.5L444.3181818181818,185.5L435.6060606060606,185.5L426.8939393939394,185.5L418.1818181818182,185.5L409.469696969697,185.5L400.7575757575758,185.5L392.0454545454545,185.5L383.3333333333333,185.5L374.6212121212121,185.5L365.9090909090909,185.5L357.1969696969697,185.5L348.4848484848485,185.5L339.7727272727273,185.5L331.06060606060606,185.5L322.3484848484848,185.5L313.6363636363636,185.5L304.92424242424244,185.5L296.2121212121212,185.5L287.5,185.5L278.7878787878788,185.5L270.07575757575756,185.5L261.3636363636364,185.5L252.65151515151516,185.5L243.93939393939394,185.5L235.22727272727275,185.5L226.5151515151515,185.5L217.8030303030303,185.5L209.0909090909091,185.5L200.3787878787879,185.5L191.66666666666666,185.5L182.95454545454544,185.5L174.24242424242425,185.5L165.53030303030303,185.5L156.8181818181818,185.5L148.1060606060606,185.5L139.3939393939394,185.5L130.6818181818182,185.5L121.96969696969697,185.5L113.25757575757575,185.5L104.54545454545455,185.5L95.83333333333333,185.5L87.12121212121212,185.5L78.4090909090909,185.5L69.6969696969697,185.5L60.984848484848484,185.5L52.27272727272727,185.5L43.56060606060606,185.5L34.84848484848485,185.5L26.136363636363637,185.5L17.424242424242426,185.5L8.712121212121213,185.5L0,185.5Z" style="fill: #4c78a8; opacity: 0.7;"></path></g><g class="mark-line role-mark layer_1_marks"><path d="M0,189.20999999999998L8.712121212121213,189.20999999999998L17.424242424242426,191.32999999999998L26.136363636363637,193.98L34.84848484848485,193.98L43.56060606060606,194.51L52.27272727272727,193.98L60.984848484848484,193.45L69.6969696969697,197.69L78.4090909090909,202.46L87.12121212121212,202.46L95.83333333333333,206.17000000000002L104.54545454545455,198.75L113.25757575757575,200.87L121.96969696969697,204.05L130.6818181818182,209.35000000000002L139.3939393939394,209.88000000000002L148.1060606060606,215.18L156.8181818181818,230.02L165.53030303030303,241.68L174.24242424242425,250.16L182.95454545454544,253.34L191.66666666666666,251.75L200.3787878787879,252.81L209.0909090909091,252.28L217.8030303030303,246.45L226.5151515151515,246.98L235.22727272727275,244.33L243.93939393939394,243.8L252.65151515151516,242.74L261.3636363636364,234.26L270.07575757575756,226.31L278.7878787878788,213.59L287.5,204.58L296.2121212121212,197.69L304.92424242424244,190.79999999999998L313.6363636363636,189.20999999999998L322.3484848484848,175.95999999999998L331.06060606060606,159.53L339.7727272727273,143.63000000000002L348.4848484848485,134.09L357.1969696969697,125.08L365.9090909090909,121.89999999999999L374.6212121212121,121.36999999999999L383.3333333333333,107.59L392.0454545454545,94.33999999999999L400.7575757575758,80.03000000000002L409.469696969697,67.84L418.1818181818182,57.239999999999995L426.8939393939394,51.40999999999999L435.6060606060606,51.40999999999999L444.3181818181818,44.52000000000001L453.030303030303,39.220000000000006L461.7424242424242,36.04L470.4545454545455,35.510000000000005L479.1666666666667,29.149999999999995L487.8787878787879,28.619999999999997L496.5909090909091,28.089999999999996L505.3030303030303,25.439999999999994L514.0151515151515,22.789999999999992L522.7272727272727,20.669999999999987L531.4393939393939,18.019999999999985L540.1515151515151,13.780000000000012L548.8636363636364,12.720000000000011L557.5757575757576,11.66000000000001L566.2878787878788,11.66000000000001L575,10.07000000000001" style="fill: none; stroke: #4c78a8; stroke-width: 2;"></path></g><g class="mark-symbol role-mark layer_2_marks"><path transform="translate(0,189.20999999999998)" d="M2.7386127875258306,0A2.7386127875258306,2.7386127875258306,0,1,1,-2.7386127875258306,0A2.7386127875258306,2.7386127875258306,0,1,1,2.7386127875258306,0" style="fill: #4c78a8; stroke-width: 2; opacity: 1;"></path><path transform="translate(8.712121212121213,189.20999999999998)" d="M2.7386127875258306,0A2.7386127875258306,2.7386127875258306,0,1,1,-2.7386127875258306,0A2.7386127875258306,2.7386127875258306,0,1,1,2.7386127875258306,0" style="fill: #4c78a8; stroke-width: 2; opacity: 1;"></path><path transform="translate(17.424242424242426,191.32999999999998)" d="M2.7386127875258306,0A2.7386127875258306,2.7386127875258306,0,1,1,-2.7386127875258306,0A2.7386127875258306,2.7386127875258306,0,1,1,2.7386127875258306,0" style="fill: #4c78a8; stroke-width: 2; opacity: 1;"></path><path transform="translate(26.136363636363637,193.98)" d="M2.7386127875258306,0A2.7386127875258306,2.7386127875258306,0,1,1,-2.7386127875258306,0A2.7386127875258306,2.7386127875258306,0,1,1,2.7386127875258306,0" style="fill: #4c78a8; stroke-width: 2; opacity: 1;"></path><path transform="translate(34.84848484848485,193.98)" d="M2.7386127875258306,0A2.7386127875258306,2.7386127875258306,0,1,1,-2.7386127875258306,0A2.7386127875258306,2.7386127875258306,0,1,1,2.7386127875258306,0" style="fill: #4c78a8; stroke-width: 2; opacity: 1;"></path><path transform="translate(43.56060606060606,194.51)" d="M2.7386127875258306,0A2.7386127875258306,2.7386127875258306,0,1,1,-2.7386127875258306,0A2.7386127875258306,2.7386127875258306,0,1,1,2.7386127875258306,0" style="fill: #4c78a8; stroke-width: 2; opacity: 1;"></path><path transform="translate(52.27272727272727,193.98)" d="M2.7386127875258306,0A2.7386127875258306,2.7386127875258306,0,1,1,-2.7386127875258306,0A2.7386127875258306,2.7386127875258306,0,1,1,2.7386127875258306,0" style="fill: #4c78a8; stroke-width: 2; opacity: 1;"></path><path transform="translate(60.984848484848484,193.45)" d="M2.7386127875258306,0A2.7386127875258306,2.7386127875258306,0,1,1,-2.7386127875258306,0A2.7386127875258306,2.7386127875258306,0,1,1,2.7386127875258306,0" style="fill: #4c78a8; stroke-width: 2; opacity: 1;"></path><path transform="translate(69.6969696969697,197.69)" d="M2.7386127875258306,0A2.7386127875258306,2.7386127875258306,0,1,1,-2.7386127875258306,0A2.7386127875258306,2.7386127875258306,0,1,1,2.7386127875258306,0" style="fill: #4c78a8; stroke-width: 2; opacity: 1;"></path><path transform="translate(78.4090909090909,202.46)" d="M2.7386127875258306,0A2.7386127875258306,2.7386127875258306,0,1,1,-2.7386127875258306,0A2.7386127875258306,2.7386127875258306,0,1,1,2.7386127875258306,0" style="fill: #4c78a8; stroke-width: 2; opacity: 1;"></path><path transform="translate(87.12121212121212,202.46)" d="M2.7386127875258306,0A2.7386127875258306,2.7386127875258306,0,1,1,-2.7386127875258306,0A2.7386127875258306,2.7386127875258306,0,1,1,2.7386127875258306,0" style="fill: #4c78a8; stroke-width: 2; opacity: 1;"></path><path transform="translate(95.83333333333333,206.17000000000002)" d="M2.7386127875258306,0A2.7386127875258306,2.7386127875258306,0,1,1,-2.7386127875258306,0A2.7386127875258306,2.7386127875258306,0,1,1,2.7386127875258306,0" style="fill: #4c78a8; stroke-width: 2; opacity: 1;"></path><path transform="translate(104.54545454545455,198.75)" d="M2.7386127875258306,0A2.7386127875258306,2.7386127875258306,0,1,1,-2.7386127875258306,0A2.7386127875258306,2.7386127875258306,0,1,1,2.7386127875258306,0" style="fill: #4c78a8; stroke-width: 2; opacity: 1;"></path><path transform="translate(113.25757575757575,200.87)" d="M2.7386127875258306,0A2.7386127875258306,2.7386127875258306,0,1,1,-2.7386127875258306,0A2.7386127875258306,2.7386127875258306,0,1,1,2.7386127875258306,0" style="fill: #4c78a8; stroke-width: 2; opacity: 1;"></path><path transform="translate(121.96969696969697,204.05)" d="M2.7386127875258306,0A2.7386127875258306,2.7386127875258306,0,1,1,-2.7386127875258306,0A2.7386127875258306,2.7386127875258306,0,1,1,2.7386127875258306,0" style="fill: #4c78a8; stroke-width: 2; opacity: 1;"></path><path transform="translate(130.6818181818182,209.35000000000002)" d="M2.7386127875258306,0A2.7386127875258306,2.7386127875258306,0,1,1,-2.7386127875258306,0A2.7386127875258306,2.7386127875258306,0,1,1,2.7386127875258306,0" style="fill: #4c78a8; stroke-width: 2; opacity: 1;"></path><path transform="translate(139.3939393939394,209.88000000000002)" d="M2.7386127875258306,0A2.7386127875258306,2.7386127875258306,0,1,1,-2.7386127875258306,0A2.7386127875258306,2.7386127875258306,0,1,1,2.7386127875258306,0" style="fill: #4c78a8; stroke-width: 2; opacity: 1;"></path><path transform="translate(148.1060606060606,215.18)" d="M2.7386127875258306,0A2.7386127875258306,2.7386127875258306,0,1,1,-2.7386127875258306,0A2.7386127875258306,2.7386127875258306,0,1,1,2.7386127875258306,0" style="fill: #4c78a8; stroke-width: 2; opacity: 1;"></path><path transform="translate(156.8181818181818,230.02)" d="M2.7386127875258306,0A2.7386127875258306,2.7386127875258306,0,1,1,-2.7386127875258306,0A2.7386127875258306,2.7386127875258306,0,1,1,2.7386127875258306,0" style="fill: #4c78a8; stroke-width: 2; opacity: 1;"></path><path transform="translate(165.53030303030303,241.68)" d="M2.7386127875258306,0A2.7386127875258306,2.7386127875258306,0,1,1,-2.7386127875258306,0A2.7386127875258306,2.7386127875258306,0,1,1,2.7386127875258306,0" style="fill: #4c78a8; stroke-width: 2; opacity: 1;"></path><path transform="translate(174.24242424242425,250.16)" d="M2.7386127875258306,0A2.7386127875258306,2.7386127875258306,0,1,1,-2.7386127875258306,0A2.7386127875258306,2.7386127875258306,0,1,1,2.7386127875258306,0" style="fill: #4c78a8; stroke-width: 2; opacity: 1;"></path><path transform="translate(182.95454545454544,253.34)" d="M2.7386127875258306,0A2.7386127875258306,2.7386127875258306,0,1,1,-2.7386127875258306,0A2.7386127875258306,2.7386127875258306,0,1,1,2.7386127875258306,0" style="fill: #4c78a8; stroke-width: 2; opacity: 1;"></path><path transform="translate(191.66666666666666,251.75)" d="M2.7386127875258306,0A2.7386127875258306,2.7386127875258306,0,1,1,-2.7386127875258306,0A2.7386127875258306,2.7386127875258306,0,1,1,2.7386127875258306,0" style="fill: #4c78a8; stroke-width: 2; opacity: 1;"></path><path transform="translate(200.3787878787879,252.81)" d="M2.7386127875258306,0A2.7386127875258306,2.7386127875258306,0,1,1,-2.7386127875258306,0A2.7386127875258306,2.7386127875258306,0,1,1,2.7386127875258306,0" style="fill: #4c78a8; stroke-width: 2; opacity: 1;"></path><path transform="translate(209.0909090909091,252.28)" d="M2.7386127875258306,0A2.7386127875258306,2.7386127875258306,0,1,1,-2.7386127875258306,0A2.7386127875258306,2.7386127875258306,0,1,1,2.7386127875258306,0" style="fill: #4c78a8; stroke-width: 2; opacity: 1;"></path><path transform="translate(217.8030303030303,246.45)" d="M2.7386127875258306,0A2.7386127875258306,2.7386127875258306,0,1,1,-2.7386127875258306,0A2.7386127875258306,2.7386127875258306,0,1,1,2.7386127875258306,0" style="fill: #4c78a8; stroke-width: 2; opacity: 1;"></path><path transform="translate(226.5151515151515,246.98)" d="M2.7386127875258306,0A2.7386127875258306,2.7386127875258306,0,1,1,-2.7386127875258306,0A2.7386127875258306,2.7386127875258306,0,1,1,2.7386127875258306,0" style="fill: #4c78a8; stroke-width: 2; opacity: 1;"></path><path transform="translate(235.22727272727275,244.33)" d="M2.7386127875258306,0A2.7386127875258306,2.7386127875258306,0,1,1,-2.7386127875258306,0A2.7386127875258306,2.7386127875258306,0,1,1,2.7386127875258306,0" style="fill: #4c78a8; stroke-width: 2; opacity: 1;"></path><path transform="translate(243.93939393939394,243.8)" d="M2.7386127875258306,0A2.7386127875258306,2.7386127875258306,0,1,1,-2.7386127875258306,0A2.7386127875258306,2.7386127875258306,0,1,1,2.7386127875258306,0" style="fill: #4c78a8; stroke-width: 2; opacity: 1;"></path><path transform="translate(252.65151515151516,242.74)" d="M2.7386127875258306,0A2.7386127875258306,2.7386127875258306,0,1,1,-2.7386127875258306,0A2.7386127875258306,2.7386127875258306,0,1,1,2.7386127875258306,0" style="fill: #4c78a8; stroke-width: 2; opacity: 1;"></path><path transform="translate(261.3636363636364,234.26)" d="M2.7386127875258306,0A2.7386127875258306,2.7386127875258306,0,1,1,-2.7386127875258306,0A2.7386127875258306,2.7386127875258306,0,1,1,2.7386127875258306,0" style="fill: #4c78a8; stroke-width: 2; opacity: 1;"></path><path transform="translate(270.07575757575756,226.31)" d="M2.7386127875258306,0A2.7386127875258306,2.7386127875258306,0,1,1,-2.7386127875258306,0A2.7386127875258306,2.7386127875258306,0,1,1,2.7386127875258306,0" style="fill: #4c78a8; stroke-width: 2; opacity: 1;"></path><path transform="translate(278.7878787878788,213.59)" d="M2.7386127875258306,0A2.7386127875258306,2.7386127875258306,0,1,1,-2.7386127875258306,0A2.7386127875258306,2.7386127875258306,0,1,1,2.7386127875258306,0" style="fill: #4c78a8; stroke-width: 2; opacity: 1;"></path><path transform="translate(287.5,204.58)" d="M2.7386127875258306,0A2.7386127875258306,2.7386127875258306,0,1,1,-2.7386127875258306,0A2.7386127875258306,2.7386127875258306,0,1,1,2.7386127875258306,0" style="fill: #4c78a8; stroke-width: 2; opacity: 1;"></path><path transform="translate(296.2121212121212,197.69)" d="M2.7386127875258306,0A2.7386127875258306,2.7386127875258306,0,1,1,-2.7386127875258306,0A2.7386127875258306,2.7386127875258306,0,1,1,2.7386127875258306,0" style="fill: #4c78a8; stroke-width: 2; opacity: 1;"></path><path transform="translate(304.92424242424244,190.79999999999998)" d="M2.7386127875258306,0A2.7386127875258306,2.7386127875258306,0,1,1,-2.7386127875258306,0A2.7386127875258306,2.7386127875258306,0,1,1,2.7386127875258306,0" style="fill: #4c78a8; stroke-width: 2; opacity: 1;"></path><path transform="translate(313.6363636363636,189.20999999999998)" d="M2.7386127875258306,0A2.7386127875258306,2.7386127875258306,0,1,1,-2.7386127875258306,0A2.7386127875258306,2.7386127875258306,0,1,1,2.7386127875258306,0" style="fill: #4c78a8; stroke-width: 2; opacity: 1;"></path><path transform="translate(322.3484848484848,175.95999999999998)" d="M2.7386127875258306,0A2.7386127875258306,2.7386127875258306,0,1,1,-2.7386127875258306,0A2.7386127875258306,2.7386127875258306,0,1,1,2.7386127875258306,0" style="fill: #4c78a8; stroke-width: 2; opacity: 1;"></path><path transform="translate(331.06060606060606,159.53)" d="M2.7386127875258306,0A2.7386127875258306,2.7386127875258306,0,1,1,-2.7386127875258306,0A2.7386127875258306,2.7386127875258306,0,1,1,2.7386127875258306,0" style="fill: #4c78a8; stroke-width: 2; opacity: 1;"></path><path transform="translate(339.7727272727273,143.63000000000002)" d="M2.7386127875258306,0A2.7386127875258306,2.7386127875258306,0,1,1,-2.7386127875258306,0A2.7386127875258306,2.7386127875258306,0,1,1,2.7386127875258306,0" style="fill: #4c78a8; stroke-width: 2; opacity: 1;"></path><path transform="translate(348.4848484848485,134.09)" d="M2.7386127875258306,0A2.7386127875258306,2.7386127875258306,0,1,1,-2.7386127875258306,0A2.7386127875258306,2.7386127875258306,0,1,1,2.7386127875258306,0" style="fill: #4c78a8; stroke-width: 2; opacity: 1;"></path><path transform="translate(357.1969696969697,125.08)" d="M2.7386127875258306,0A2.7386127875258306,2.7386127875258306,0,1,1,-2.7386127875258306,0A2.7386127875258306,2.7386127875258306,0,1,1,2.7386127875258306,0" style="fill: #4c78a8; stroke-width: 2; opacity: 1;"></path><path transform="translate(365.9090909090909,121.89999999999999)" d="M2.7386127875258306,0A2.7386127875258306,2.7386127875258306,0,1,1,-2.7386127875258306,0A2.7386127875258306,2.7386127875258306,0,1,1,2.7386127875258306,0" style="fill: #4c78a8; stroke-width: 2; opacity: 1;"></path><path transform="translate(374.6212121212121,121.36999999999999)" d="M2.7386127875258306,0A2.7386127875258306,2.7386127875258306,0,1,1,-2.7386127875258306,0A2.7386127875258306,2.7386127875258306,0,1,1,2.7386127875258306,0" style="fill: #4c78a8; stroke-width: 2; opacity: 1;"></path><path transform="translate(383.3333333333333,107.59)" d="M2.7386127875258306,0A2.7386127875258306,2.7386127875258306,0,1,1,-2.7386127875258306,0A2.7386127875258306,2.7386127875258306,0,1,1,2.7386127875258306,0" style="fill: #4c78a8; stroke-width: 2; opacity: 1;"></path><path transform="translate(392.0454545454545,94.33999999999999)" d="M2.7386127875258306,0A2.7386127875258306,2.7386127875258306,0,1,1,-2.7386127875258306,0A2.7386127875258306,2.7386127875258306,0,1,1,2.7386127875258306,0" style="fill: #4c78a8; stroke-width: 2; opacity: 1;"></path><path transform="translate(400.7575757575758,80.03000000000002)" d="M2.7386127875258306,0A2.7386127875258306,2.7386127875258306,0,1,1,-2.7386127875258306,0A2.7386127875258306,2.7386127875258306,0,1,1,2.7386127875258306,0" style="fill: #4c78a8; stroke-width: 2; opacity: 1;"></path><path transform="translate(409.469696969697,67.84)" d="M2.7386127875258306,0A2.7386127875258306,2.7386127875258306,0,1,1,-2.7386127875258306,0A2.7386127875258306,2.7386127875258306,0,1,1,2.7386127875258306,0" style="fill: #4c78a8; stroke-width: 2; opacity: 1;"></path><path transform="translate(418.1818181818182,57.239999999999995)" d="M2.7386127875258306,0A2.7386127875258306,2.7386127875258306,0,1,1,-2.7386127875258306,0A2.7386127875258306,2.7386127875258306,0,1,1,2.7386127875258306,0" style="fill: #4c78a8; stroke-width: 2; opacity: 1;"></path><path transform="translate(426.8939393939394,51.40999999999999)" d="M2.7386127875258306,0A2.7386127875258306,2.7386127875258306,0,1,1,-2.7386127875258306,0A2.7386127875258306,2.7386127875258306,0,1,1,2.7386127875258306,0" style="fill: #4c78a8; stroke-width: 2; opacity: 1;"></path><path transform="translate(435.6060606060606,51.40999999999999)" d="M2.7386127875258306,0A2.7386127875258306,2.7386127875258306,0,1,1,-2.7386127875258306,0A2.7386127875258306,2.7386127875258306,0,1,1,2.7386127875258306,0" style="fill: #4c78a8; stroke-width: 2; opacity: 1;"></path><path transform="translate(444.3181818181818,44.52000000000001)" d="M2.7386127875258306,0A2.7386127875258306,2.7386127875258306,0,1,1,-2.7386127875258306,0A2.7386127875258306,2.7386127875258306,0,1,1,2.7386127875258306,0" style="fill: #4c78a8; stroke-width: 2; opacity: 1;"></path><path transform="translate(453.030303030303,39.220000000000006)" d="M2.7386127875258306,0A2.7386127875258306,2.7386127875258306,0,1,1,-2.7386127875258306,0A2.7386127875258306,2.7386127875258306,0,1,1,2.7386127875258306,0" style="fill: #4c78a8; stroke-width: 2; opacity: 1;"></path><path transform="translate(461.7424242424242,36.04)" d="M2.7386127875258306,0A2.7386127875258306,2.7386127875258306,0,1,1,-2.7386127875258306,0A2.7386127875258306,2.7386127875258306,0,1,1,2.7386127875258306,0" style="fill: #4c78a8; stroke-width: 2; opacity: 1;"></path><path transform="translate(470.4545454545455,35.510000000000005)" d="M2.7386127875258306,0A2.7386127875258306,2.7386127875258306,0,1,1,-2.7386127875258306,0A2.7386127875258306,2.7386127875258306,0,1,1,2.7386127875258306,0" style="fill: #4c78a8; stroke-width: 2; opacity: 1;"></path><path transform="translate(479.1666666666667,29.149999999999995)" d="M2.7386127875258306,0A2.7386127875258306,2.7386127875258306,0,1,1,-2.7386127875258306,0A2.7386127875258306,2.7386127875258306,0,1,1,2.7386127875258306,0" style="fill: #4c78a8; stroke-width: 2; opacity: 1;"></path><path transform="translate(487.8787878787879,28.619999999999997)" d="M2.7386127875258306,0A2.7386127875258306,2.7386127875258306,0,1,1,-2.7386127875258306,0A2.7386127875258306,2.7386127875258306,0,1,1,2.7386127875258306,0" style="fill: #4c78a8; stroke-width: 2; opacity: 1;"></path><path transform="translate(496.5909090909091,28.089999999999996)" d="M2.7386127875258306,0A2.7386127875258306,2.7386127875258306,0,1,1,-2.7386127875258306,0A2.7386127875258306,2.7386127875258306,0,1,1,2.7386127875258306,0" style="fill: #4c78a8; stroke-width: 2; opacity: 1;"></path><path transform="translate(505.3030303030303,25.439999999999994)" d="M2.7386127875258306,0A2.7386127875258306,2.7386127875258306,0,1,1,-2.7386127875258306,0A2.7386127875258306,2.7386127875258306,0,1,1,2.7386127875258306,0" style="fill: #4c78a8; stroke-width: 2; opacity: 1;"></path><path transform="translate(514.0151515151515,22.789999999999992)" d="M2.7386127875258306,0A2.7386127875258306,2.7386127875258306,0,1,1,-2.7386127875258306,0A2.7386127875258306,2.7386127875258306,0,1,1,2.7386127875258306,0" style="fill: #4c78a8; stroke-width: 2; opacity: 1;"></path><path transform="translate(522.7272727272727,20.669999999999987)" d="M2.7386127875258306,0A2.7386127875258306,2.7386127875258306,0,1,1,-2.7386127875258306,0A2.7386127875258306,2.7386127875258306,0,1,1,2.7386127875258306,0" style="fill: #4c78a8; stroke-width: 2; opacity: 1;"></path><path transform="translate(531.4393939393939,18.019999999999985)" d="M2.7386127875258306,0A2.7386127875258306,2.7386127875258306,0,1,1,-2.7386127875258306,0A2.7386127875258306,2.7386127875258306,0,1,1,2.7386127875258306,0" style="fill: #4c78a8; stroke-width: 2; opacity: 1;"></path><path transform="translate(540.1515151515151,13.780000000000012)" d="M2.7386127875258306,0A2.7386127875258306,2.7386127875258306,0,1,1,-2.7386127875258306,0A2.7386127875258306,2.7386127875258306,0,1,1,2.7386127875258306,0" style="fill: #4c78a8; stroke-width: 2; opacity: 1;"></path><path transform="translate(548.8636363636364,12.720000000000011)" d="M2.7386127875258306,0A2.7386127875258306,2.7386127875258306,0,1,1,-2.7386127875258306,0A2.7386127875258306,2.7386127875258306,0,1,1,2.7386127875258306,0" style="fill: #4c78a8; stroke-width: 2; opacity: 1;"></path><path transform="translate(557.5757575757576,11.66000000000001)" d="M2.7386127875258306,0A2.7386127875258306,2.7386127875258306,0,1,1,-2.7386127875258306,0A2.7386127875258306,2.7386127875258306,0,1,1,2.7386127875258306,0" style="fill: #4c78a8; stroke-width: 2; opacity: 1;"></path><path transform="translate(566.2878787878788,11.66000000000001)" d="M2.7386127875258306,0A2.7386127875258306,2.7386127875258306,0,1,1,-2.7386127875258306,0A2.7386127875258306,2.7386127875258306,0,1,1,2.7386127875258306,0" style="fill: #4c78a8; stroke-width: 2; opacity: 1;"></path><path transform="translate(575,10.07000000000001)" d="M2.7386127875258306,0A2.7386127875258306,2.7386127875258306,0,1,1,-2.7386127875258306,0A2.7386127875258306,2.7386127875258306,0,1,1,2.7386127875258306,0" style="fill: #4c78a8; stroke-width: 2; opacity: 1;"></path></g></g><path class="foreground" d="" style="display: none; fill: none;"></path></g></g></g></svg>