<svg class="marks" width="643" height="175" viewBox="0 0 643 175" version="1.1" xmlns="http://www.w3.org/2000/svg" xmlns:xlink="http://www.w3.org/1999/xlink"><rect width="643" height="175" style="fill: white;"></rect><g transform="translate(29,6)"><g class="mark-group role-frame root"><g transform="translate(0,0)"><path class="background" d="M0,0h0v0h0Z" style="fill: none;"></path><g><g class="mark-group role-scope concat_0_group"><g transform="translate(0,0)"><path class="background" d="M0.5,0.5h575v40h-575Z" style="fill: none; stroke: #ddd;"></path><g><g class="mark-text role-mark concat_0_marks"><text text-anchor="middle" transform="translate(287.5,23)" style="font-family: sans-serif; font-size: 11px; fill: black;">Datos hasta: 28 de mayo, 2020</text></g></g><path class="foreground" d="" style="display: none; fill: none;"></path></g></g><g class="mark-group role-scope concat_1_group"><g transform="translate(0,49)"><path class="background" d="M0.5,0.5h575v75h-575Z" style="fill: none; stroke: #ddd;"></path><g><g class="mark-group role-axis"><g transform="translate(0.5,75.5)"><path class="background" d="M0,0h0v0h0Z" style="pointer-events: none; fill: none;"></path><g><g class="mark-rule role-axis-grid" style="pointer-events: none;"><line transform="translate(0,-75)" x2="0" y2="75" style="fill: none; stroke: #ddd; stroke-width: 1; opacity: 1;"></line><line transform="translate(41,-75)" x2="0" y2="75" style="fill: none; stroke: #ddd; stroke-width: 1; opacity: 1;"></line><line transform="translate(82,-75)" x2="0" y2="75" style="fill: none; stroke: #ddd; stroke-width: 1; opacity: 1;"></line><line transform="translate(123,-75)" x2="0" y2="75" style="fill: none; stroke: #ddd; stroke-width: 1; opacity: 1;"></line><line transform="translate(164,-75)" x2="0" y2="75" style="fill: none; stroke: #ddd; stroke-width: 1; opacity: 1;"></line><line transform="translate(205,-75)" x2="0" y2="75" style="fill: none; stroke: #ddd; stroke-width: 1; opacity: 1;"></line><line transform="translate(246,-75)" x2="0" y2="75" style="fill: none; stroke: #ddd; stroke-width: 1; opacity: 1;"></line><line transform="translate(288,-75)" x2="0" y2="75" style="fill: none; stroke: #ddd; stroke-width: 1; opacity: 1;"></line><line transform="translate(329,-75)" x2="0" y2="75" style="fill: none; stroke: #ddd; stroke-width: 1; opacity: 1;"></line><line transform="translate(370,-75)" x2="0" y2="75" style="fill: none; stroke: #ddd; stroke-width: 1; opacity: 1;"></line><line transform="translate(411,-75)" x2="0" y2="75" style="fill: none; stroke: #ddd; stroke-width: 1; opacity: 1;"></line><line transform="translate(452,-75)" x2="0" y2="75" style="fill: none; stroke: #ddd; stroke-width: 1; opacity: 1;"></line><line transform="translate(493,-75)" x2="0" y2="75" style="fill: none; stroke: #ddd; stroke-width: 1; opacity: 1;"></line><line transform="translate(534,-75)" x2="0" y2="75" style="fill: none; stroke: #ddd; stroke-width: 1; opacity: 1;"></line><line transform="translate(575,-75)" x2="0" y2="75" style="fill: none; stroke: #ddd; stroke-width: 1; opacity: 1;"></line></g></g><path class="foreground" d="" style="pointer-events: none; display: none; fill: none;"></path></g></g><g class="mark-group role-axis"><g transform="translate(0.5,0.5)"><path class="background" d="M0,0h0v0h0Z" style="pointer-events: none; fill: none;"></path><g><g class="mark-rule role-axis-grid" style="pointer-events: none;"><line transform="translate(0,75)" x2="575" y2="0" style="fill: none; stroke: #ddd; stroke-width: 1; opacity: 1;"></line><line transform="translate(0,38)" x2="575" y2="0" style="fill: none; stroke: #ddd; stroke-width: 1; opacity: 1;"></line><line transform="translate(0,0)" x2="575" y2="0" style="fill: none; stroke: #ddd; stroke-width: 1; opacity: 1;"></line></g></g><path class="foreground" d="" style="pointer-events: none; display: none; fill: none;"></path></g></g><g class="mark-group role-axis"><g transform="translate(0.5,75.5)"><path class="background" d="M0,0h0v0h0Z" style="pointer-events: none; fill: none;"></path><g><g class="mark-rule role-axis-tick" style="pointer-events: none;"><line transform="translate(0,0)" x2="0" y2="5" style="fill: none; stroke: #888; stroke-width: 1; opacity: 1;"></line><line transform="translate(41,0)" x2="0" y2="5" style="fill: none; stroke: #888; stroke-width: 1; opacity: 1;"></line><line transform="translate(82,0)" x2="0" y2="5" style="fill: none; stroke: #888; stroke-width: 1; opacity: 1;"></line><line transform="translate(123,0)" x2="0" y2="5" style="fill: none; stroke: #888; stroke-width: 1; opacity: 1;"></line><line transform="translate(164,0)" x2="0" y2="5" style="fill: none; stroke: #888; stroke-width: 1; opacity: 1;"></line><line transform="translate(205,0)" x2="0" y2="5" style="fill: none; stroke: #888; stroke-width: 1; opacity: 1;"></line><line transform="translate(246,0)" x2="0" y2="5" style="fill: none; stroke: #888; stroke-width: 1; opacity: 1;"></line><line transform="translate(288,0)" x2="0" y2="5" style="fill: none; stroke: #888; stroke-width: 1; opacity: 1;"></line><line transform="translate(329,0)" x2="0" y2="5" style="fill: none; stroke: #888; stroke-width: 1; opacity: 1;"></line><line transform="translate(370,0)" x2="0" y2="5" style="fill: none; stroke: #888; stroke-width: 1; opacity: 1;"></line><line transform="translate(411,0)" x2="0" y2="5" style="fill: none; stroke: #888; stroke-width: 1; opacity: 1;"></line><line transform="translate(452,0)" x2="0" y2="5" style="fill: none; stroke: #888; stroke-width: 1; opacity: 1;"></line><line transform="translate(493,0)" x2="0" y2="5" style="fill: none; stroke: #888; stroke-width: 1; opacity: 1;"></line><line transform="translate(534,0)" x2="0" y2="5" style="fill: none; stroke: #888; stroke-width: 1; opacity: 1;"></line><line transform="translate(575,0)" x2="0" y2="5" style="fill: none; stroke: #888; stroke-width: 1; opacity: 1;"></line></g><g class="mark-text role-axis-label" style="pointer-events: none;"><text text-anchor="start" transform="translate(0,18)" style="font-family: sans-serif; font-size: 14px; fill: #000; opacity: 1;">21/05</text><text text-anchor="middle" transform="translate(41.07142857142857,18)" style="font-family: sans-serif; font-size: 14px; fill: #000; opacity: 0;">21/05</text><text text-anchor="middle" transform="translate(82.14285714285714,18)" style="font-family: sans-serif; font-size: 14px; fill: #000; opacity: 1;">22/05</text><text text-anchor="middle" transform="translate(123.21428571428571,18)" style="font-family: sans-serif; font-size: 14px; fill: #000; opacity: 0;">22/05</text><text text-anchor="middle" transform="translate(164.28571428571428,18)" style="font-family: sans-serif; font-size: 14px; fill: #000; opacity: 1;">23/05</text><text text-anchor="middle" transform="translate(205.35714285714286,18)" style="font-family: sans-serif; font-size: 14px; fill: #000; opacity: 0;">23/05</text><text text-anchor="middle" transform="translate(246.42857142857142,18)" style="font-family: sans-serif; font-size: 14px; fill: #000; opacity: 1;">24/05</text><text text-anchor="middle" transform="translate(287.5,18)" style="font-family: sans-serif; font-size: 14px; fill: #000; opacity: 0;">24/05</text><text text-anchor="middle" transform="translate(328.57142857142856,18)" style="font-family: sans-serif; font-size: 14px; fill: #000; opacity: 1;">25/05</text><text text-anchor="middle" transform="translate(369.64285714285717,18)" style="font-family: sans-serif; font-size: 14px; fill: #000; opacity: 0;">25/05</text><text text-anchor="middle" transform="translate(410.7142857142857,18)" style="font-family: sans-serif; font-size: 14px; fill: #000; opacity: 1;">26/05</text><text text-anchor="middle" transform="translate(451.7857142857143,18)" style="font-family: sans-serif; font-size: 14px; fill: #000; opacity: 0;">26/05</text><text text-anchor="middle" transform="translate(492.85714285714283,18)" style="font-family: sans-serif; font-size: 14px; fill: #000; opacity: 1;">27/05</text><text text-anchor="middle" transform="translate(533.9285714285714,18)" style="font-family: sans-serif; font-size: 14px; fill: #000; opacity: 0;">27/05</text><text text-anchor="end" transform="translate(575,18)" style="font-family: sans-serif; font-size: 14px; fill: #000; opacity: 1;">28/05</text></g><g class="mark-rule role-axis-domain" style="pointer-events: none;"><line transform="translate(0,0)" x2="575" y2="0" style="fill: none; stroke: #888; stroke-width: 1; opacity: 1;"></line></g><g class="mark-text role-axis-title" style="pointer-events: none;"><text text-anchor="middle" transform="translate(287.5,36)" style="font-family: sans-serif; font-size: 14px; font-weight: bold; fill: #000; opacity: 1;">Puerto Rico</text></g></g><path class="foreground" d="" style="pointer-events: none; display: none; fill: none;"></path></g></g><g class="mark-group role-axis"><g transform="translate(0.5,0.5)"><path class="background" d="M0,0h0v0h0Z" style="pointer-events: none; fill: none;"></path><g><g class="mark-rule role-axis-tick" style="pointer-events: none;"><line transform="translate(0,75)" x2="-5" y2="0" style="fill: none; stroke: #888; stroke-width: 1; opacity: 1;"></line><line transform="translate(0,38)" x2="-5" y2="0" style="fill: none; stroke: #888; stroke-width: 1; opacity: 1;"></line><line transform="translate(0,0)" x2="-5" y2="0" style="fill: none; stroke: #888; stroke-width: 1; opacity: 1;"></line></g><g class="mark-text role-axis-label" style="pointer-events: none;"><text text-anchor="end" transform="translate(-7,79)" style="font-family: sans-serif; font-size: 14px; fill: #000; opacity: 1;">0</text><text text-anchor="end" transform="translate(-7,41.5)" style="font-family: sans-serif; font-size: 14px; fill: #000; opacity: 1;">10</text><text text-anchor="end" transform="translate(-7,4)" style="font-family: sans-serif; font-size: 14px; fill: #000; opacity: 1;">20</text></g><g class="mark-rule role-axis-domain" style="pointer-events: none;"><line transform="translate(0,75)" x2="0" y2="-75" style="fill: none; stroke: #888; stroke-width: 1; opacity: 1;"></line></g></g><path class="foreground" d="" style="pointer-events: none; display: none; fill: none;"></path></g></g><g class="mark-line role-mark concat_1_layer_0_layer_0_marks"><path d="M0,26.035149266022355L575,2.550197357667952" style="fill: none; stroke: #4c78a8; stroke-width: 2;"></path></g><g class="mark-symbol role-mark concat_1_layer_0_layer_1_marks"><path transform="translate(0,26.035149266022355)" d="M2.7386127875258306,0A2.7386127875258306,2.7386127875258306,0,1,1,-2.7386127875258306,0A2.7386127875258306,2.7386127875258306,0,1,1,2.7386127875258306,0" style="fill: #4c78a8; stroke-width: 2; opacity: 1;"></path><path transform="translate(575,2.550197357667952)" d="M2.7386127875258306,0A2.7386127875258306,2.7386127875258306,0,1,1,-2.7386127875258306,0A2.7386127875258306,2.7386127875258306,0,1,1,2.7386127875258306,0" style="fill: #4c78a8; stroke-width: 2; opacity: 1;"></path></g><g class="mark-text role-mark concat_1_layer_1_marks"><text text-anchor="start" transform="translate(5,41.03514926602236)" style="font-family: sans-serif; font-size: 11px; fill: black;">13.06</text><text text-anchor="start" transform="translate(580,17.55019735766795)" style="font-family: sans-serif; font-size: 11px; fill: black;">19.32</text></g></g><path class="foreground" d="" style="display: none; fill: none;"></path></g></g></g><path class="foreground" d="" style="display: none; fill: none;"></path></g></g></g></svg>