<svg class="marks" width="634" height="314" viewBox="0 0 634 314" version="1.1" xmlns="http://www.w3.org/2000/svg" xmlns:xlink="http://www.w3.org/1999/xlink"><rect width="634" height="314" style="fill: white;"></rect><g transform="translate(51,5)"><g class="mark-group role-frame root"><g transform="translate(0,0)"><path class="background" d="M0.5,0.5h575v265h-575Z" style="fill: none; stroke: #ddd;"></path><g><g class="mark-group role-axis"><g transform="translate(0.5,265.5)"><path class="background" d="M0,0h0v0h0Z" style="pointer-events: none; fill: none;"></path><g><g class="mark-rule role-axis-grid" style="pointer-events: none;"><line transform="translate(9,-265)" x2="0" y2="265" style="fill: none; stroke: #ddd; stroke-width: 1; opacity: 1;"></line><line transform="translate(70,-265)" x2="0" y2="265" style="fill: none; stroke: #ddd; stroke-width: 1; opacity: 1;"></line><line transform="translate(131,-265)" x2="0" y2="265" style="fill: none; stroke: #ddd; stroke-width: 1; opacity: 1;"></line><line transform="translate(192,-265)" x2="0" y2="265" style="fill: none; stroke: #ddd; stroke-width: 1; opacity: 1;"></line><line transform="translate(253,-265)" x2="0" y2="265" style="fill: none; stroke: #ddd; stroke-width: 1; opacity: 1;"></line><line transform="translate(314,-265)" x2="0" y2="265" style="fill: none; stroke: #ddd; stroke-width: 1; opacity: 1;"></line><line transform="translate(375,-265)" x2="0" y2="265" style="fill: none; stroke: #ddd; stroke-width: 1; opacity: 1;"></line><line transform="translate(436,-265)" x2="0" y2="265" style="fill: none; stroke: #ddd; stroke-width: 1; opacity: 1;"></line><line transform="translate(497,-265)" x2="0" y2="265" style="fill: none; stroke: #ddd; stroke-width: 1; opacity: 1;"></line><line transform="translate(558,-265)" x2="0" y2="265" style="fill: none; stroke: #ddd; stroke-width: 1; opacity: 1;"></line></g></g><path class="foreground" d="" style="pointer-events: none; display: none; fill: none;"></path></g></g><g class="mark-group role-axis"><g transform="translate(0.5,0.5)"><path class="background" d="M0,0h0v0h0Z" style="pointer-events: none; fill: none;"></path><g><g class="mark-rule role-axis-grid" style="pointer-events: none;"><line transform="translate(0,246)" x2="575" y2="0" style="fill: none; stroke: #ddd; stroke-width: 1; opacity: 1;"></line><line transform="translate(0,208)" x2="575" y2="0" style="fill: none; stroke: #ddd; stroke-width: 1; opacity: 1;"></line><line transform="translate(0,170)" x2="575" y2="0" style="fill: none; stroke: #ddd; stroke-width: 1; opacity: 1;"></line><line transform="translate(0,133)" x2="575" y2="0" style="fill: none; stroke: #ddd; stroke-width: 1; opacity: 1;"></line><line transform="translate(0,95)" x2="575" y2="0" style="fill: none; stroke: #ddd; stroke-width: 1; opacity: 1;"></line><line transform="translate(0,57)" x2="575" y2="0" style="fill: none; stroke: #ddd; stroke-width: 1; opacity: 1;"></line><line transform="translate(0,19)" x2="575" y2="0" style="fill: none; stroke: #ddd; stroke-width: 1; opacity: 1;"></line></g></g><path class="foreground" d="" style="pointer-events: none; display: none; fill: none;"></path></g></g><g class="mark-group role-axis"><g transform="translate(0.5,265.5)"><path class="background" d="M0,0h0v0h0Z" style="pointer-events: none; fill: none;"></path><g><g class="mark-rule role-axis-tick" style="pointer-events: none;"><line transform="translate(9,0)" x2="0" y2="5" style="fill: none; stroke: #888; stroke-width: 1; opacity: 1;"></line><line transform="translate(70,0)" x2="0" y2="5" style="fill: none; stroke: #888; stroke-width: 1; opacity: 1;"></line><line transform="translate(131,0)" x2="0" y2="5" style="fill: none; stroke: #888; stroke-width: 1; opacity: 1;"></line><line transform="translate(192,0)" x2="0" y2="5" style="fill: none; stroke: #888; stroke-width: 1; opacity: 1;"></line><line transform="translate(253,0)" x2="0" y2="5" style="fill: none; stroke: #888; stroke-width: 1; opacity: 1;"></line><line transform="translate(314,0)" x2="0" y2="5" style="fill: none; stroke: #888; stroke-width: 1; opacity: 1;"></line><line transform="translate(375,0)" x2="0" y2="5" style="fill: none; stroke: #888; stroke-width: 1; opacity: 1;"></line><line transform="translate(436,0)" x2="0" y2="5" style="fill: none; stroke: #888; stroke-width: 1; opacity: 1;"></line><line transform="translate(497,0)" x2="0" y2="5" style="fill: none; stroke: #888; stroke-width: 1; opacity: 1;"></line><line transform="translate(558,0)" x2="0" y2="5" style="fill: none; stroke: #888; stroke-width: 1; opacity: 1;"></line></g><g class="mark-text role-axis-label" style="pointer-events: none;"><text text-anchor="middle" transform="translate(8.712121212121213,18)" style="font-family: sans-serif; font-size: 14px; fill: #000; opacity: 1;">15/03</text><text text-anchor="middle" transform="translate(69.6969696969697,18)" style="font-family: sans-serif; font-size: 14px; fill: #000; opacity: 1;">22/03</text><text text-anchor="middle" transform="translate(130.6818181818182,18)" style="font-family: sans-serif; font-size: 14px; fill: #000; opacity: 1;">29/03</text><text text-anchor="middle" transform="translate(191.66666666666666,18)" style="font-family: sans-serif; font-size: 14px; fill: #000; opacity: 1;">05/04</text><text text-anchor="middle" transform="translate(252.65151515151516,18)" style="font-family: sans-serif; font-size: 14px; fill: #000; opacity: 1;">12/04</text><text text-anchor="middle" transform="translate(313.6363636363636,18)" style="font-family: sans-serif; font-size: 14px; fill: #000; opacity: 1;">19/04</text><text text-anchor="middle" transform="translate(374.6212121212121,18)" style="font-family: sans-serif; font-size: 14px; fill: #000; opacity: 1;">26/04</text><text text-anchor="middle" transform="translate(435.6060606060606,18)" style="font-family: sans-serif; font-size: 14px; fill: #000; opacity: 1;">03/05</text><text text-anchor="middle" transform="translate(496.5909090909091,18)" style="font-family: sans-serif; font-size: 14px; fill: #000; opacity: 1;">10/05</text><text text-anchor="middle" transform="translate(557.5757575757576,18)" style="font-family: sans-serif; font-size: 14px; fill: #000; opacity: 1;">17/05</text></g><g class="mark-rule role-axis-domain" style="pointer-events: none;"><line transform="translate(0,0)" x2="575" y2="0" style="fill: none; stroke: #888; stroke-width: 1; opacity: 1;"></line></g><g class="mark-text role-axis-title" style="pointer-events: none;"><text text-anchor="middle" transform="translate(287.5,36)" style="font-family: sans-serif; font-size: 14px; font-weight: bold; fill: #000; opacity: 1;">Fecha de toma de muestra</text></g></g><path class="foreground" d="" style="pointer-events: none; display: none; fill: none;"></path></g></g><g class="mark-group role-axis"><g transform="translate(0.5,0.5)"><path class="background" d="M0,0h0v0h0Z" style="pointer-events: none; fill: none;"></path><g><g class="mark-rule role-axis-tick" style="pointer-events: none;"><line transform="translate(0,246)" x2="-5" y2="0" style="fill: none; stroke: #888; stroke-width: 1; opacity: 1;"></line><line transform="translate(0,208)" x2="-5" y2="0" style="fill: none; stroke: #888; stroke-width: 1; opacity: 1;"></line><line transform="translate(0,170)" x2="-5" y2="0" style="fill: none; stroke: #888; stroke-width: 1; opacity: 1;"></line><line transform="translate(0,133)" x2="-5" y2="0" style="fill: none; stroke: #888; stroke-width: 1; opacity: 1;"></line><line transform="translate(0,95)" x2="-5" y2="0" style="fill: none; stroke: #888; stroke-width: 1; opacity: 1;"></line><line transform="translate(0,57)" x2="-5" y2="0" style="fill: none; stroke: #888; stroke-width: 1; opacity: 1;"></line><line transform="translate(0,19)" x2="-5" y2="0" style="fill: none; stroke: #888; stroke-width: 1; opacity: 1;"></line></g><g class="mark-text role-axis-label" style="pointer-events: none;"><text text-anchor="end" transform="translate(-7,250.07142857142858)" style="font-family: sans-serif; font-size: 14px; fill: #000; opacity: 1;">-30</text><text text-anchor="end" transform="translate(-7,212.21428571428572)" style="font-family: sans-serif; font-size: 14px; fill: #000; opacity: 1;">-20</text><text text-anchor="end" transform="translate(-7,174.35714285714283)" style="font-family: sans-serif; font-size: 14px; fill: #000; opacity: 1;">-10</text><text text-anchor="end" transform="translate(-7,136.5)" style="font-family: sans-serif; font-size: 14px; fill: #000; opacity: 1;">0</text><text text-anchor="end" transform="translate(-7,98.64285714285712)" style="font-family: sans-serif; font-size: 14px; fill: #000; opacity: 1;">10</text><text text-anchor="end" transform="translate(-7,60.78571428571429)" style="font-family: sans-serif; font-size: 14px; fill: #000; opacity: 1;">20</text><text text-anchor="end" transform="translate(-7,22.92857142857142)" style="font-family: sans-serif; font-size: 14px; fill: #000; opacity: 1;">30</text></g><g class="mark-rule role-axis-domain" style="pointer-events: none;"><line transform="translate(0,265)" x2="0" y2="-265" style="fill: none; stroke: #888; stroke-width: 1; opacity: 1;"></line></g><g class="mark-text role-axis-title" style="pointer-events: none;"><text text-anchor="middle" transform="translate(-31.234375,132.5) rotate(-90) translate(0,-3)" style="font-family: sans-serif; font-size: 14px; font-weight: bold; fill: #000; opacity: 1;">Positivos menos confirmados</text></g></g><path class="foreground" d="" style="pointer-events: none; display: none; fill: none;"></path></g></g><g class="mark-area role-mark layer_0_marks"><path d="M0,143.8571428571429L17.424242424242426,147.64285714285714L26.136363636363637,155.2142857142857L34.84848484848485,132.5L43.56060606060606,136.28571428571428L52.27272727272727,128.71428571428572L60.984848484848484,132.5L69.6969696969697,162.7857142857143L78.4090909090909,166.57142857142856L87.12121212121212,132.5L95.83333333333333,159L104.54545454545455,87.07142857142858L113.25757575757575,147.64285714285714L121.96969696969697,159L130.6818181818182,170.35714285714283L139.3939393939394,143.8571428571429L148.1060606060606,170.35714285714283L156.8181818181818,249.85714285714286L165.53030303030303,219.57142857142856L174.24242424242425,200.64285714285714L182.95454545454544,162.7857142857143L191.66666666666666,121.14285714285715L200.3787878787879,132.5L209.0909090909091,128.71428571428572L217.8030303030303,87.07142857142858L226.5151515151515,136.28571428571428L235.22727272727275,117.35714285714285L243.93939393939394,128.71428571428572L252.65151515151516,124.92857142857143L261.3636363636364,71.92857142857144L270.07575757575756,75.71428571428571L278.7878787878788,34.07142857142857L287.5,68.14285714285714L296.2121212121212,87.07142857142858L304.92424242424244,83.28571428571428L313.6363636363636,121.14285714285715L322.3484848484848,37.85714285714287L331.06060606060606,11.357142857142847L339.7727272727273,15.142857142857148L348.4848484848485,56.78571428571429L357.1969696969697,68.14285714285714L365.9090909090909,109.78571428571428L383.3333333333333,37.85714285714287L392.0454545454545,49.214285714285715L400.7575757575758,34.07142857142857L409.469696969697,52.999999999999986L418.1818181818182,64.35714285714286L426.8939393939394,98.42857142857143L435.6060606060606,132.5L444.3181818181818,75.71428571428571L453.030303030303,113.57142857142858L461.7424242424242,136.28571428571428L470.4545454545455,132.5L479.1666666666667,106L487.8787878787879,132.5L505.3030303030303,117.35714285714285L514.0151515151515,128.71428571428572L522.7272727272727,140.07142857142858L531.4393939393939,132.5L540.1515151515151,121.14285714285715L548.8636363636364,124.92857142857143L557.5757575757576,128.71428571428572L566.2878787878788,151.42857142857142L575,143.8571428571429L575,132.5L566.2878787878788,132.5L557.5757575757576,132.5L548.8636363636364,132.5L540.1515151515151,132.5L531.4393939393939,132.5L522.7272727272727,132.5L514.0151515151515,132.5L505.3030303030303,132.5L487.8787878787879,132.5L479.1666666666667,132.5L470.4545454545455,132.5L461.7424242424242,132.5L453.030303030303,132.5L444.3181818181818,132.5L435.6060606060606,132.5L426.8939393939394,132.5L418.1818181818182,132.5L409.469696969697,132.5L400.7575757575758,132.5L392.0454545454545,132.5L383.3333333333333,132.5L365.9090909090909,132.5L357.1969696969697,132.5L348.4848484848485,132.5L339.7727272727273,132.5L331.06060606060606,132.5L322.3484848484848,132.5L313.6363636363636,132.5L304.92424242424244,132.5L296.2121212121212,132.5L287.5,132.5L278.7878787878788,132.5L270.07575757575756,132.5L261.3636363636364,132.5L252.65151515151516,132.5L243.93939393939394,132.5L235.22727272727275,132.5L226.5151515151515,132.5L217.8030303030303,132.5L209.0909090909091,132.5L200.3787878787879,132.5L191.66666666666666,132.5L182.95454545454544,132.5L174.24242424242425,132.5L165.53030303030303,132.5L156.8181818181818,132.5L148.1060606060606,132.5L139.3939393939394,132.5L130.6818181818182,132.5L121.96969696969697,132.5L113.25757575757575,132.5L104.54545454545455,132.5L95.83333333333333,132.5L87.12121212121212,132.5L78.4090909090909,132.5L69.6969696969697,132.5L60.984848484848484,132.5L52.27272727272727,132.5L43.56060606060606,132.5L34.84848484848485,132.5L26.136363636363637,132.5L17.424242424242426,132.5L0,132.5Z" style="fill: #4c78a8; opacity: 0.7;"></path></g><g class="mark-line role-mark layer_1_marks"><path d="M0,143.8571428571429L17.424242424242426,147.64285714285714L26.136363636363637,155.2142857142857L34.84848484848485,132.5L43.56060606060606,136.28571428571428L52.27272727272727,128.71428571428572L60.984848484848484,132.5L69.6969696969697,162.7857142857143L78.4090909090909,166.57142857142856L87.12121212121212,132.5L95.83333333333333,159L104.54545454545455,87.07142857142858L113.25757575757575,147.64285714285714L121.96969696969697,159L130.6818181818182,170.35714285714283L139.3939393939394,143.8571428571429L148.1060606060606,170.35714285714283L156.8181818181818,249.85714285714286L165.53030303030303,219.57142857142856L174.24242424242425,200.64285714285714L182.95454545454544,162.7857142857143L191.66666666666666,121.14285714285715L200.3787878787879,132.5L209.0909090909091,128.71428571428572L217.8030303030303,87.07142857142858L226.5151515151515,136.28571428571428L235.22727272727275,117.35714285714285L243.93939393939394,128.71428571428572L252.65151515151516,124.92857142857143L261.3636363636364,71.92857142857144L270.07575757575756,75.71428571428571L278.7878787878788,34.07142857142857L287.5,68.14285714285714L296.2121212121212,87.07142857142858L304.92424242424244,83.28571428571428L313.6363636363636,121.14285714285715L322.3484848484848,37.85714285714287L331.06060606060606,11.357142857142847L339.7727272727273,15.142857142857148L348.4848484848485,56.78571428571429L357.1969696969697,68.14285714285714L365.9090909090909,109.78571428571428L383.3333333333333,37.85714285714287L392.0454545454545,49.214285714285715L400.7575757575758,34.07142857142857L409.469696969697,52.999999999999986L418.1818181818182,64.35714285714286L426.8939393939394,98.42857142857143L435.6060606060606,132.5L444.3181818181818,75.71428571428571L453.030303030303,113.57142857142858L461.7424242424242,136.28571428571428L470.4545454545455,132.5L479.1666666666667,106L487.8787878787879,132.5L505.3030303030303,117.35714285714285L514.0151515151515,128.71428571428572L522.7272727272727,140.07142857142858L531.4393939393939,132.5L540.1515151515151,121.14285714285715L548.8636363636364,124.92857142857143L557.5757575757576,128.71428571428572L566.2878787878788,151.42857142857142L575,143.8571428571429" style="fill: none; stroke: #4c78a8; stroke-width: 2;"></path></g><g class="mark-symbol role-mark layer_2_marks"><path transform="translate(0,143.8571428571429)" d="M2.7386127875258306,0A2.7386127875258306,2.7386127875258306,0,1,1,-2.7386127875258306,0A2.7386127875258306,2.7386127875258306,0,1,1,2.7386127875258306,0" style="fill: #4c78a8; stroke-width: 2; opacity: 1;"></path><path transform="translate(17.424242424242426,147.64285714285714)" d="M2.7386127875258306,0A2.7386127875258306,2.7386127875258306,0,1,1,-2.7386127875258306,0A2.7386127875258306,2.7386127875258306,0,1,1,2.7386127875258306,0" style="fill: #4c78a8; stroke-width: 2; opacity: 1;"></path><path transform="translate(26.136363636363637,155.2142857142857)" d="M2.7386127875258306,0A2.7386127875258306,2.7386127875258306,0,1,1,-2.7386127875258306,0A2.7386127875258306,2.7386127875258306,0,1,1,2.7386127875258306,0" style="fill: #4c78a8; stroke-width: 2; opacity: 1;"></path><path transform="translate(34.84848484848485,132.5)" d="M2.7386127875258306,0A2.7386127875258306,2.7386127875258306,0,1,1,-2.7386127875258306,0A2.7386127875258306,2.7386127875258306,0,1,1,2.7386127875258306,0" style="fill: #4c78a8; stroke-width: 2; opacity: 1;"></path><path transform="translate(43.56060606060606,136.28571428571428)" d="M2.7386127875258306,0A2.7386127875258306,2.7386127875258306,0,1,1,-2.7386127875258306,0A2.7386127875258306,2.7386127875258306,0,1,1,2.7386127875258306,0" style="fill: #4c78a8; stroke-width: 2; opacity: 1;"></path><path transform="translate(52.27272727272727,128.71428571428572)" d="M2.7386127875258306,0A2.7386127875258306,2.7386127875258306,0,1,1,-2.7386127875258306,0A2.7386127875258306,2.7386127875258306,0,1,1,2.7386127875258306,0" style="fill: #4c78a8; stroke-width: 2; opacity: 1;"></path><path transform="translate(60.984848484848484,132.5)" d="M2.7386127875258306,0A2.7386127875258306,2.7386127875258306,0,1,1,-2.7386127875258306,0A2.7386127875258306,2.7386127875258306,0,1,1,2.7386127875258306,0" style="fill: #4c78a8; stroke-width: 2; opacity: 1;"></path><path transform="translate(69.6969696969697,162.7857142857143)" d="M2.7386127875258306,0A2.7386127875258306,2.7386127875258306,0,1,1,-2.7386127875258306,0A2.7386127875258306,2.7386127875258306,0,1,1,2.7386127875258306,0" style="fill: #4c78a8; stroke-width: 2; opacity: 1;"></path><path transform="translate(78.4090909090909,166.57142857142856)" d="M2.7386127875258306,0A2.7386127875258306,2.7386127875258306,0,1,1,-2.7386127875258306,0A2.7386127875258306,2.7386127875258306,0,1,1,2.7386127875258306,0" style="fill: #4c78a8; stroke-width: 2; opacity: 1;"></path><path transform="translate(87.12121212121212,132.5)" d="M2.7386127875258306,0A2.7386127875258306,2.7386127875258306,0,1,1,-2.7386127875258306,0A2.7386127875258306,2.7386127875258306,0,1,1,2.7386127875258306,0" style="fill: #4c78a8; stroke-width: 2; opacity: 1;"></path><path transform="translate(95.83333333333333,159)" d="M2.7386127875258306,0A2.7386127875258306,2.7386127875258306,0,1,1,-2.7386127875258306,0A2.7386127875258306,2.7386127875258306,0,1,1,2.7386127875258306,0" style="fill: #4c78a8; stroke-width: 2; opacity: 1;"></path><path transform="translate(104.54545454545455,87.07142857142858)" d="M2.7386127875258306,0A2.7386127875258306,2.7386127875258306,0,1,1,-2.7386127875258306,0A2.7386127875258306,2.7386127875258306,0,1,1,2.7386127875258306,0" style="fill: #4c78a8; stroke-width: 2; opacity: 1;"></path><path transform="translate(113.25757575757575,147.64285714285714)" d="M2.7386127875258306,0A2.7386127875258306,2.7386127875258306,0,1,1,-2.7386127875258306,0A2.7386127875258306,2.7386127875258306,0,1,1,2.7386127875258306,0" style="fill: #4c78a8; stroke-width: 2; opacity: 1;"></path><path transform="translate(121.96969696969697,159)" d="M2.7386127875258306,0A2.7386127875258306,2.7386127875258306,0,1,1,-2.7386127875258306,0A2.7386127875258306,2.7386127875258306,0,1,1,2.7386127875258306,0" style="fill: #4c78a8; stroke-width: 2; opacity: 1;"></path><path transform="translate(130.6818181818182,170.35714285714283)" d="M2.7386127875258306,0A2.7386127875258306,2.7386127875258306,0,1,1,-2.7386127875258306,0A2.7386127875258306,2.7386127875258306,0,1,1,2.7386127875258306,0" style="fill: #4c78a8; stroke-width: 2; opacity: 1;"></path><path transform="translate(139.3939393939394,143.8571428571429)" d="M2.7386127875258306,0A2.7386127875258306,2.7386127875258306,0,1,1,-2.7386127875258306,0A2.7386127875258306,2.7386127875258306,0,1,1,2.7386127875258306,0" style="fill: #4c78a8; stroke-width: 2; opacity: 1;"></path><path transform="translate(148.1060606060606,170.35714285714283)" d="M2.7386127875258306,0A2.7386127875258306,2.7386127875258306,0,1,1,-2.7386127875258306,0A2.7386127875258306,2.7386127875258306,0,1,1,2.7386127875258306,0" style="fill: #4c78a8; stroke-width: 2; opacity: 1;"></path><path transform="translate(156.8181818181818,249.85714285714286)" d="M2.7386127875258306,0A2.7386127875258306,2.7386127875258306,0,1,1,-2.7386127875258306,0A2.7386127875258306,2.7386127875258306,0,1,1,2.7386127875258306,0" style="fill: #4c78a8; stroke-width: 2; opacity: 1;"></path><path transform="translate(165.53030303030303,219.57142857142856)" d="M2.7386127875258306,0A2.7386127875258306,2.7386127875258306,0,1,1,-2.7386127875258306,0A2.7386127875258306,2.7386127875258306,0,1,1,2.7386127875258306,0" style="fill: #4c78a8; stroke-width: 2; opacity: 1;"></path><path transform="translate(174.24242424242425,200.64285714285714)" d="M2.7386127875258306,0A2.7386127875258306,2.7386127875258306,0,1,1,-2.7386127875258306,0A2.7386127875258306,2.7386127875258306,0,1,1,2.7386127875258306,0" style="fill: #4c78a8; stroke-width: 2; opacity: 1;"></path><path transform="translate(182.95454545454544,162.7857142857143)" d="M2.7386127875258306,0A2.7386127875258306,2.7386127875258306,0,1,1,-2.7386127875258306,0A2.7386127875258306,2.7386127875258306,0,1,1,2.7386127875258306,0" style="fill: #4c78a8; stroke-width: 2; opacity: 1;"></path><path transform="translate(191.66666666666666,121.14285714285715)" d="M2.7386127875258306,0A2.7386127875258306,2.7386127875258306,0,1,1,-2.7386127875258306,0A2.7386127875258306,2.7386127875258306,0,1,1,2.7386127875258306,0" style="fill: #4c78a8; stroke-width: 2; opacity: 1;"></path><path transform="translate(200.3787878787879,132.5)" d="M2.7386127875258306,0A2.7386127875258306,2.7386127875258306,0,1,1,-2.7386127875258306,0A2.7386127875258306,2.7386127875258306,0,1,1,2.7386127875258306,0" style="fill: #4c78a8; stroke-width: 2; opacity: 1;"></path><path transform="translate(209.0909090909091,128.71428571428572)" d="M2.7386127875258306,0A2.7386127875258306,2.7386127875258306,0,1,1,-2.7386127875258306,0A2.7386127875258306,2.7386127875258306,0,1,1,2.7386127875258306,0" style="fill: #4c78a8; stroke-width: 2; opacity: 1;"></path><path transform="translate(217.8030303030303,87.07142857142858)" d="M2.7386127875258306,0A2.7386127875258306,2.7386127875258306,0,1,1,-2.7386127875258306,0A2.7386127875258306,2.7386127875258306,0,1,1,2.7386127875258306,0" style="fill: #4c78a8; stroke-width: 2; opacity: 1;"></path><path transform="translate(226.5151515151515,136.28571428571428)" d="M2.7386127875258306,0A2.7386127875258306,2.7386127875258306,0,1,1,-2.7386127875258306,0A2.7386127875258306,2.7386127875258306,0,1,1,2.7386127875258306,0" style="fill: #4c78a8; stroke-width: 2; opacity: 1;"></path><path transform="translate(235.22727272727275,117.35714285714285)" d="M2.7386127875258306,0A2.7386127875258306,2.7386127875258306,0,1,1,-2.7386127875258306,0A2.7386127875258306,2.7386127875258306,0,1,1,2.7386127875258306,0" style="fill: #4c78a8; stroke-width: 2; opacity: 1;"></path><path transform="translate(243.93939393939394,128.71428571428572)" d="M2.7386127875258306,0A2.7386127875258306,2.7386127875258306,0,1,1,-2.7386127875258306,0A2.7386127875258306,2.7386127875258306,0,1,1,2.7386127875258306,0" style="fill: #4c78a8; stroke-width: 2; opacity: 1;"></path><path transform="translate(252.65151515151516,124.92857142857143)" d="M2.7386127875258306,0A2.7386127875258306,2.7386127875258306,0,1,1,-2.7386127875258306,0A2.7386127875258306,2.7386127875258306,0,1,1,2.7386127875258306,0" style="fill: #4c78a8; stroke-width: 2; opacity: 1;"></path><path transform="translate(261.3636363636364,71.92857142857144)" d="M2.7386127875258306,0A2.7386127875258306,2.7386127875258306,0,1,1,-2.7386127875258306,0A2.7386127875258306,2.7386127875258306,0,1,1,2.7386127875258306,0" style="fill: #4c78a8; stroke-width: 2; opacity: 1;"></path><path transform="translate(270.07575757575756,75.71428571428571)" d="M2.7386127875258306,0A2.7386127875258306,2.7386127875258306,0,1,1,-2.7386127875258306,0A2.7386127875258306,2.7386127875258306,0,1,1,2.7386127875258306,0" style="fill: #4c78a8; stroke-width: 2; opacity: 1;"></path><path transform="translate(278.7878787878788,34.07142857142857)" d="M2.7386127875258306,0A2.7386127875258306,2.7386127875258306,0,1,1,-2.7386127875258306,0A2.7386127875258306,2.7386127875258306,0,1,1,2.7386127875258306,0" style="fill: #4c78a8; stroke-width: 2; opacity: 1;"></path><path transform="translate(287.5,68.14285714285714)" d="M2.7386127875258306,0A2.7386127875258306,2.7386127875258306,0,1,1,-2.7386127875258306,0A2.7386127875258306,2.7386127875258306,0,1,1,2.7386127875258306,0" style="fill: #4c78a8; stroke-width: 2; opacity: 1;"></path><path transform="translate(296.2121212121212,87.07142857142858)" d="M2.7386127875258306,0A2.7386127875258306,2.7386127875258306,0,1,1,-2.7386127875258306,0A2.7386127875258306,2.7386127875258306,0,1,1,2.7386127875258306,0" style="fill: #4c78a8; stroke-width: 2; opacity: 1;"></path><path transform="translate(304.92424242424244,83.28571428571428)" d="M2.7386127875258306,0A2.7386127875258306,2.7386127875258306,0,1,1,-2.7386127875258306,0A2.7386127875258306,2.7386127875258306,0,1,1,2.7386127875258306,0" style="fill: #4c78a8; stroke-width: 2; opacity: 1;"></path><path transform="translate(313.6363636363636,121.14285714285715)" d="M2.7386127875258306,0A2.7386127875258306,2.7386127875258306,0,1,1,-2.7386127875258306,0A2.7386127875258306,2.7386127875258306,0,1,1,2.7386127875258306,0" style="fill: #4c78a8; stroke-width: 2; opacity: 1;"></path><path transform="translate(322.3484848484848,37.85714285714287)" d="M2.7386127875258306,0A2.7386127875258306,2.7386127875258306,0,1,1,-2.7386127875258306,0A2.7386127875258306,2.7386127875258306,0,1,1,2.7386127875258306,0" style="fill: #4c78a8; stroke-width: 2; opacity: 1;"></path><path transform="translate(331.06060606060606,11.357142857142847)" d="M2.7386127875258306,0A2.7386127875258306,2.7386127875258306,0,1,1,-2.7386127875258306,0A2.7386127875258306,2.7386127875258306,0,1,1,2.7386127875258306,0" style="fill: #4c78a8; stroke-width: 2; opacity: 1;"></path><path transform="translate(339.7727272727273,15.142857142857148)" d="M2.7386127875258306,0A2.7386127875258306,2.7386127875258306,0,1,1,-2.7386127875258306,0A2.7386127875258306,2.7386127875258306,0,1,1,2.7386127875258306,0" style="fill: #4c78a8; stroke-width: 2; opacity: 1;"></path><path transform="translate(348.4848484848485,56.78571428571429)" d="M2.7386127875258306,0A2.7386127875258306,2.7386127875258306,0,1,1,-2.7386127875258306,0A2.7386127875258306,2.7386127875258306,0,1,1,2.7386127875258306,0" style="fill: #4c78a8; stroke-width: 2; opacity: 1;"></path><path transform="translate(357.1969696969697,68.14285714285714)" d="M2.7386127875258306,0A2.7386127875258306,2.7386127875258306,0,1,1,-2.7386127875258306,0A2.7386127875258306,2.7386127875258306,0,1,1,2.7386127875258306,0" style="fill: #4c78a8; stroke-width: 2; opacity: 1;"></path><path transform="translate(365.9090909090909,109.78571428571428)" d="M2.7386127875258306,0A2.7386127875258306,2.7386127875258306,0,1,1,-2.7386127875258306,0A2.7386127875258306,2.7386127875258306,0,1,1,2.7386127875258306,0" style="fill: #4c78a8; stroke-width: 2; opacity: 1;"></path><path transform="translate(383.3333333333333,37.85714285714287)" d="M2.7386127875258306,0A2.7386127875258306,2.7386127875258306,0,1,1,-2.7386127875258306,0A2.7386127875258306,2.7386127875258306,0,1,1,2.7386127875258306,0" style="fill: #4c78a8; stroke-width: 2; opacity: 1;"></path><path transform="translate(392.0454545454545,49.214285714285715)" d="M2.7386127875258306,0A2.7386127875258306,2.7386127875258306,0,1,1,-2.7386127875258306,0A2.7386127875258306,2.7386127875258306,0,1,1,2.7386127875258306,0" style="fill: #4c78a8; stroke-width: 2; opacity: 1;"></path><path transform="translate(400.7575757575758,34.07142857142857)" d="M2.7386127875258306,0A2.7386127875258306,2.7386127875258306,0,1,1,-2.7386127875258306,0A2.7386127875258306,2.7386127875258306,0,1,1,2.7386127875258306,0" style="fill: #4c78a8; stroke-width: 2; opacity: 1;"></path><path transform="translate(409.469696969697,52.999999999999986)" d="M2.7386127875258306,0A2.7386127875258306,2.7386127875258306,0,1,1,-2.7386127875258306,0A2.7386127875258306,2.7386127875258306,0,1,1,2.7386127875258306,0" style="fill: #4c78a8; stroke-width: 2; opacity: 1;"></path><path transform="translate(418.1818181818182,64.35714285714286)" d="M2.7386127875258306,0A2.7386127875258306,2.7386127875258306,0,1,1,-2.7386127875258306,0A2.7386127875258306,2.7386127875258306,0,1,1,2.7386127875258306,0" style="fill: #4c78a8; stroke-width: 2; opacity: 1;"></path><path transform="translate(426.8939393939394,98.42857142857143)" d="M2.7386127875258306,0A2.7386127875258306,2.7386127875258306,0,1,1,-2.7386127875258306,0A2.7386127875258306,2.7386127875258306,0,1,1,2.7386127875258306,0" style="fill: #4c78a8; stroke-width: 2; opacity: 1;"></path><path transform="translate(435.6060606060606,132.5)" d="M2.7386127875258306,0A2.7386127875258306,2.7386127875258306,0,1,1,-2.7386127875258306,0A2.7386127875258306,2.7386127875258306,0,1,1,2.7386127875258306,0" style="fill: #4c78a8; stroke-width: 2; opacity: 1;"></path><path transform="translate(444.3181818181818,75.71428571428571)" d="M2.7386127875258306,0A2.7386127875258306,2.7386127875258306,0,1,1,-2.7386127875258306,0A2.7386127875258306,2.7386127875258306,0,1,1,2.7386127875258306,0" style="fill: #4c78a8; stroke-width: 2; opacity: 1;"></path><path transform="translate(453.030303030303,113.57142857142858)" d="M2.7386127875258306,0A2.7386127875258306,2.7386127875258306,0,1,1,-2.7386127875258306,0A2.7386127875258306,2.7386127875258306,0,1,1,2.7386127875258306,0" style="fill: #4c78a8; stroke-width: 2; opacity: 1;"></path><path transform="translate(461.7424242424242,136.28571428571428)" d="M2.7386127875258306,0A2.7386127875258306,2.7386127875258306,0,1,1,-2.7386127875258306,0A2.7386127875258306,2.7386127875258306,0,1,1,2.7386127875258306,0" style="fill: #4c78a8; stroke-width: 2; opacity: 1;"></path><path transform="translate(470.4545454545455,132.5)" d="M2.7386127875258306,0A2.7386127875258306,2.7386127875258306,0,1,1,-2.7386127875258306,0A2.7386127875258306,2.7386127875258306,0,1,1,2.7386127875258306,0" style="fill: #4c78a8; stroke-width: 2; opacity: 1;"></path><path transform="translate(479.1666666666667,106)" d="M2.7386127875258306,0A2.7386127875258306,2.7386127875258306,0,1,1,-2.7386127875258306,0A2.7386127875258306,2.7386127875258306,0,1,1,2.7386127875258306,0" style="fill: #4c78a8; stroke-width: 2; opacity: 1;"></path><path transform="translate(487.8787878787879,132.5)" d="M2.7386127875258306,0A2.7386127875258306,2.7386127875258306,0,1,1,-2.7386127875258306,0A2.7386127875258306,2.7386127875258306,0,1,1,2.7386127875258306,0" style="fill: #4c78a8; stroke-width: 2; opacity: 1;"></path><path transform="translate(505.3030303030303,117.35714285714285)" d="M2.7386127875258306,0A2.7386127875258306,2.7386127875258306,0,1,1,-2.7386127875258306,0A2.7386127875258306,2.7386127875258306,0,1,1,2.7386127875258306,0" style="fill: #4c78a8; stroke-width: 2; opacity: 1;"></path><path transform="translate(514.0151515151515,128.71428571428572)" d="M2.7386127875258306,0A2.7386127875258306,2.7386127875258306,0,1,1,-2.7386127875258306,0A2.7386127875258306,2.7386127875258306,0,1,1,2.7386127875258306,0" style="fill: #4c78a8; stroke-width: 2; opacity: 1;"></path><path transform="translate(522.7272727272727,140.07142857142858)" d="M2.7386127875258306,0A2.7386127875258306,2.7386127875258306,0,1,1,-2.7386127875258306,0A2.7386127875258306,2.7386127875258306,0,1,1,2.7386127875258306,0" style="fill: #4c78a8; stroke-width: 2; opacity: 1;"></path><path transform="translate(531.4393939393939,132.5)" d="M2.7386127875258306,0A2.7386127875258306,2.7386127875258306,0,1,1,-2.7386127875258306,0A2.7386127875258306,2.7386127875258306,0,1,1,2.7386127875258306,0" style="fill: #4c78a8; stroke-width: 2; opacity: 1;"></path><path transform="translate(540.1515151515151,121.14285714285715)" d="M2.7386127875258306,0A2.7386127875258306,2.7386127875258306,0,1,1,-2.7386127875258306,0A2.7386127875258306,2.7386127875258306,0,1,1,2.7386127875258306,0" style="fill: #4c78a8; stroke-width: 2; opacity: 1;"></path><path transform="translate(548.8636363636364,124.92857142857143)" d="M2.7386127875258306,0A2.7386127875258306,2.7386127875258306,0,1,1,-2.7386127875258306,0A2.7386127875258306,2.7386127875258306,0,1,1,2.7386127875258306,0" style="fill: #4c78a8; stroke-width: 2; opacity: 1;"></path><path transform="translate(557.5757575757576,128.71428571428572)" d="M2.7386127875258306,0A2.7386127875258306,2.7386127875258306,0,1,1,-2.7386127875258306,0A2.7386127875258306,2.7386127875258306,0,1,1,2.7386127875258306,0" style="fill: #4c78a8; stroke-width: 2; opacity: 1;"></path><path transform="translate(566.2878787878788,151.42857142857142)" d="M2.7386127875258306,0A2.7386127875258306,2.7386127875258306,0,1,1,-2.7386127875258306,0A2.7386127875258306,2.7386127875258306,0,1,1,2.7386127875258306,0" style="fill: #4c78a8; stroke-width: 2; opacity: 1;"></path><path transform="translate(575,143.8571428571429)" d="M2.7386127875258306,0A2.7386127875258306,2.7386127875258306,0,1,1,-2.7386127875258306,0A2.7386127875258306,2.7386127875258306,0,1,1,2.7386127875258306,0" style="fill: #4c78a8; stroke-width: 2; opacity: 1;"></path></g></g><path class="foreground" d="" style="display: none; fill: none;"></path></g></g></g></svg>