<svg class="marks" width="655" height="171" viewBox="0 0 655 171" version="1.1" xmlns="http://www.w3.org/2000/svg" xmlns:xlink="http://www.w3.org/1999/xlink"><rect width="655" height="171" style="fill: white;"></rect><g transform="translate(36,5)"><g class="mark-group role-frame root"><g transform="translate(0,0)"><path class="background" d="M0,0h0v0h0Z" style="fill: none;"></path><g><g class="mark-group role-scope concat_0_group"><g transform="translate(0,0)"><path class="background" d="M0,0h575v40h-575Z" style="fill: none; stroke: #ddd; stroke-width: 0;"></path><g><g class="mark-text role-mark concat_0_marks"><text text-anchor="middle" transform="translate(287.5,23)" style="font-family: sans-serif; font-size: 11px; fill: black;">Datos hasta: 12 de junio, 2020</text></g></g><path class="foreground" d="" style="display: none; fill: none;"></path></g></g><g class="mark-group role-scope concat_1_group"><g transform="translate(0,47)"><path class="background" d="M0,0h575v75h-575Z" style="fill: none; stroke: #ddd; stroke-width: 0;"></path><g><g class="mark-group role-axis"><g transform="translate(0.5,75.5)"><path class="background" d="M0,0h0v0h0Z" style="pointer-events: none; fill: none;"></path><g><g class="mark-rule role-axis-grid" style="pointer-events: none;"><line transform="translate(0,-75)" x2="0" y2="75" style="fill: none; stroke: #ddd; stroke-width: 1; opacity: 1;"></line><line transform="translate(38,-75)" x2="0" y2="75" style="fill: none; stroke: #ddd; stroke-width: 1; opacity: 1;"></line><line transform="translate(77,-75)" x2="0" y2="75" style="fill: none; stroke: #ddd; stroke-width: 1; opacity: 1;"></line><line transform="translate(115,-75)" x2="0" y2="75" style="fill: none; stroke: #ddd; stroke-width: 1; opacity: 1;"></line><line transform="translate(153,-75)" x2="0" y2="75" style="fill: none; stroke: #ddd; stroke-width: 1; opacity: 1;"></line><line transform="translate(192,-75)" x2="0" y2="75" style="fill: none; stroke: #ddd; stroke-width: 1; opacity: 1;"></line><line transform="translate(230,-75)" x2="0" y2="75" style="fill: none; stroke: #ddd; stroke-width: 1; opacity: 1;"></line><line transform="translate(268,-75)" x2="0" y2="75" style="fill: none; stroke: #ddd; stroke-width: 1; opacity: 1;"></line><line transform="translate(307,-75)" x2="0" y2="75" style="fill: none; stroke: #ddd; stroke-width: 1; opacity: 1;"></line><line transform="translate(345,-75)" x2="0" y2="75" style="fill: none; stroke: #ddd; stroke-width: 1; opacity: 1;"></line><line transform="translate(383,-75)" x2="0" y2="75" style="fill: none; stroke: #ddd; stroke-width: 1; opacity: 1;"></line><line transform="translate(422,-75)" x2="0" y2="75" style="fill: none; stroke: #ddd; stroke-width: 1; opacity: 1;"></line><line transform="translate(460,-75)" x2="0" y2="75" style="fill: none; stroke: #ddd; stroke-width: 1; opacity: 1;"></line><line transform="translate(498,-75)" x2="0" y2="75" style="fill: none; stroke: #ddd; stroke-width: 1; opacity: 1;"></line><line transform="translate(537,-75)" x2="0" y2="75" style="fill: none; stroke: #ddd; stroke-width: 1; opacity: 1;"></line><line transform="translate(575,-75)" x2="0" y2="75" style="fill: none; stroke: #ddd; stroke-width: 1; opacity: 1;"></line></g></g><path class="foreground" d="" style="pointer-events: none; display: none; fill: none;"></path></g></g><g class="mark-group role-axis"><g transform="translate(0.5,0.5)"><path class="background" d="M0,0h0v0h0Z" style="pointer-events: none; fill: none;"></path><g><g class="mark-rule role-axis-grid" style="pointer-events: none;"><line transform="translate(0,75)" x2="575" y2="0" style="fill: none; stroke: #ddd; stroke-width: 1; opacity: 1;"></line><line transform="translate(0,38)" x2="575" y2="0" style="fill: none; stroke: #ddd; stroke-width: 1; opacity: 1;"></line><line transform="translate(0,0)" x2="575" y2="0" style="fill: none; stroke: #ddd; stroke-width: 1; opacity: 1;"></line></g></g><path class="foreground" d="" style="pointer-events: none; display: none; fill: none;"></path></g></g><g class="mark-group role-axis"><g transform="translate(0.5,75.5)"><path class="background" d="M0,0h0v0h0Z" style="pointer-events: none; fill: none;"></path><g><g class="mark-rule role-axis-tick" style="pointer-events: none;"><line transform="translate(0,0)" x2="0" y2="5" style="fill: none; stroke: #888; stroke-width: 1; opacity: 1;"></line><line transform="translate(38,0)" x2="0" y2="5" style="fill: none; stroke: #888; stroke-width: 1; opacity: 1;"></line><line transform="translate(77,0)" x2="0" y2="5" style="fill: none; stroke: #888; stroke-width: 1; opacity: 1;"></line><line transform="translate(115,0)" x2="0" y2="5" style="fill: none; stroke: #888; stroke-width: 1; opacity: 1;"></line><line transform="translate(153,0)" x2="0" y2="5" style="fill: none; stroke: #888; stroke-width: 1; opacity: 1;"></line><line transform="translate(192,0)" x2="0" y2="5" style="fill: none; stroke: #888; stroke-width: 1; opacity: 1;"></line><line transform="translate(230,0)" x2="0" y2="5" style="fill: none; stroke: #888; stroke-width: 1; opacity: 1;"></line><line transform="translate(268,0)" x2="0" y2="5" style="fill: none; stroke: #888; stroke-width: 1; opacity: 1;"></line><line transform="translate(307,0)" x2="0" y2="5" style="fill: none; stroke: #888; stroke-width: 1; opacity: 1;"></line><line transform="translate(345,0)" x2="0" y2="5" style="fill: none; stroke: #888; stroke-width: 1; opacity: 1;"></line><line transform="translate(383,0)" x2="0" y2="5" style="fill: none; stroke: #888; stroke-width: 1; opacity: 1;"></line><line transform="translate(422,0)" x2="0" y2="5" style="fill: none; stroke: #888; stroke-width: 1; opacity: 1;"></line><line transform="translate(460,0)" x2="0" y2="5" style="fill: none; stroke: #888; stroke-width: 1; opacity: 1;"></line><line transform="translate(498,0)" x2="0" y2="5" style="fill: none; stroke: #888; stroke-width: 1; opacity: 1;"></line><line transform="translate(537,0)" x2="0" y2="5" style="fill: none; stroke: #888; stroke-width: 1; opacity: 1;"></line><line transform="translate(575,0)" x2="0" y2="5" style="fill: none; stroke: #888; stroke-width: 1; opacity: 1;"></line></g><g class="mark-text role-axis-label" style="pointer-events: none;"><text text-anchor="start" transform="translate(0,18)" style="font-family: sans-serif; font-size: 14px; fill: #000; opacity: 1;">28/05</text><text text-anchor="middle" transform="translate(38.333333333333336,18)" style="font-family: sans-serif; font-size: 14px; fill: #000; opacity: 0;">29/05</text><text text-anchor="middle" transform="translate(76.66666666666667,18)" style="font-family: sans-serif; font-size: 14px; fill: #000; opacity: 1;">30/05</text><text text-anchor="middle" transform="translate(115,18)" style="font-family: sans-serif; font-size: 14px; fill: #000; opacity: 0;">31/05</text><text text-anchor="middle" transform="translate(153.33333333333334,18)" style="font-family: sans-serif; font-size: 14px; fill: #000; opacity: 1;">01/06</text><text text-anchor="middle" transform="translate(191.66666666666666,18)" style="font-family: sans-serif; font-size: 14px; fill: #000; opacity: 0;">02/06</text><text text-anchor="middle" transform="translate(230,18)" style="font-family: sans-serif; font-size: 14px; fill: #000; opacity: 1;">03/06</text><text text-anchor="middle" transform="translate(268.3333333333333,18)" style="font-family: sans-serif; font-size: 14px; fill: #000; opacity: 0;">04/06</text><text text-anchor="middle" transform="translate(306.6666666666667,18)" style="font-family: sans-serif; font-size: 14px; fill: #000; opacity: 1;">05/06</text><text text-anchor="middle" transform="translate(345,18)" style="font-family: sans-serif; font-size: 14px; fill: #000; opacity: 0;">06/06</text><text text-anchor="middle" transform="translate(383.3333333333333,18)" style="font-family: sans-serif; font-size: 14px; fill: #000; opacity: 1;">07/06</text><text text-anchor="middle" transform="translate(421.66666666666663,18)" style="font-family: sans-serif; font-size: 14px; fill: #000; opacity: 0;">08/06</text><text text-anchor="middle" transform="translate(460,18)" style="font-family: sans-serif; font-size: 14px; fill: #000; opacity: 1;">09/06</text><text text-anchor="middle" transform="translate(498.33333333333337,18)" style="font-family: sans-serif; font-size: 14px; fill: #000; opacity: 0;">10/06</text><text text-anchor="middle" transform="translate(536.6666666666666,18)" style="font-family: sans-serif; font-size: 14px; fill: #000; opacity: 1;">11/06</text><text text-anchor="end" transform="translate(575,18)" style="font-family: sans-serif; font-size: 14px; fill: #000; opacity: 0;">12/06</text></g><g class="mark-rule role-axis-domain" style="pointer-events: none;"><line transform="translate(0,0)" x2="575" y2="0" style="fill: none; stroke: #888; stroke-width: 1; opacity: 1;"></line></g><g class="mark-text role-axis-title" style="pointer-events: none;"><text text-anchor="middle" transform="translate(287.5,36)" style="font-family: sans-serif; font-size: 14px; font-weight: bold; fill: #000; opacity: 1;">Puerto Rico</text></g></g><path class="foreground" d="" style="pointer-events: none; display: none; fill: none;"></path></g></g><g class="mark-group role-axis"><g transform="translate(0.5,0.5)"><path class="background" d="M0,0h0v0h0Z" style="pointer-events: none; fill: none;"></path><g><g class="mark-rule role-axis-tick" style="pointer-events: none;"><line transform="translate(0,75)" x2="-5" y2="0" style="fill: none; stroke: #888; stroke-width: 1; opacity: 1;"></line><line transform="translate(0,38)" x2="-5" y2="0" style="fill: none; stroke: #888; stroke-width: 1; opacity: 1;"></line><line transform="translate(0,0)" x2="-5" y2="0" style="fill: none; stroke: #888; stroke-width: 1; opacity: 1;"></line></g><g class="mark-text role-axis-label" style="pointer-events: none;"><text text-anchor="end" transform="translate(-7,79)" style="font-family: sans-serif; font-size: 14px; fill: #000; opacity: 1;">0</text><text text-anchor="end" transform="translate(-7,41.5)" style="font-family: sans-serif; font-size: 14px; fill: #000; opacity: 1;">200</text><text text-anchor="end" transform="translate(-7,4)" style="font-family: sans-serif; font-size: 14px; fill: #000; opacity: 1;">400</text></g><g class="mark-rule role-axis-domain" style="pointer-events: none;"><line transform="translate(0,75)" x2="0" y2="-75" style="fill: none; stroke: #888; stroke-width: 1; opacity: 1;"></line></g></g><path class="foreground" d="" style="pointer-events: none; display: none; fill: none;"></path></g></g><g class="mark-line role-mark concat_1_layer_0_layer_0_marks"><path d="M0,22.914062499999993L345,0.15052816901408306L575,4.8920454545454515" style="fill: none; stroke: #4c78a8; stroke-width: 2;"></path></g><g class="mark-symbol role-mark concat_1_layer_0_layer_1_marks"><path transform="translate(0,22.914062499999993)" d="M2.7386127875258306,0A2.7386127875258306,2.7386127875258306,0,1,1,-2.7386127875258306,0A2.7386127875258306,2.7386127875258306,0,1,1,2.7386127875258306,0" style="fill: #4c78a8; stroke-width: 2; opacity: 1;"></path><path transform="translate(345,0.15052816901408306)" d="M2.7386127875258306,0A2.7386127875258306,2.7386127875258306,0,1,1,-2.7386127875258306,0A2.7386127875258306,2.7386127875258306,0,1,1,2.7386127875258306,0" style="fill: #4c78a8; stroke-width: 2; opacity: 1;"></path><path transform="translate(575,4.8920454545454515)" d="M2.7386127875258306,0A2.7386127875258306,2.7386127875258306,0,1,1,-2.7386127875258306,0A2.7386127875258306,2.7386127875258306,0,1,1,2.7386127875258306,0" style="fill: #4c78a8; stroke-width: 2; opacity: 1;"></path></g><g class="mark-text role-mark concat_1_layer_1_marks"><text text-anchor="start" transform="translate(5,37.91406249999999)" style="font-family: sans-serif; font-size: 11px; fill: black;">277.79</text><text text-anchor="start" transform="translate(350,15.150528169014082)" style="font-family: sans-serif; font-size: 11px; fill: black;">399.20</text><text text-anchor="start" transform="translate(580,19.892045454545453)" style="font-family: sans-serif; font-size: 11px; fill: black;">373.91</text></g></g><path class="foreground" d="" style="display: none; fill: none;"></path></g></g></g><path class="foreground" d="" style="display: none; fill: none;"></path></g></g></g></svg>